<?xml version="1.0" encoding="UTF-8" standalone="no"?>
<svg width="157px" height="224px" viewBox="0 0 157 224" version="1.1" xmlns="http://www.w3.org/2000/svg" xmlns:xlink="http://www.w3.org/1999/xlink" xmlns:sketch="http://www.bohemiancoding.com/sketch/ns">
    <!-- Generator: Sketch 3.4.4 (17249) - http://www.bohemiancoding.com/sketch -->
    <title>england</title>
    <desc>Created with Sketch.</desc>
    <defs></defs>
    <g id="Assets" stroke="none" stroke-width="1" fill="none" fill-rule="evenodd" sketch:type="MSPage">
        <g id="england" sketch:type="MSArtboardGroup" stroke="#FF6A00" fill="#FFFFFF" stroke-linecap="round" stroke-linejoin="round">
            <path d="M127.001246,3.86336206 L128.267654,3.92179802 L128.316362,3.28874178 L129.251556,1.61357758 L129.271039,1.38957307 L128.881375,1.00973933 L128.559902,1 L127.87799,1.50644499 L127.498068,1.31165846 L127.118146,1.41879105 L126.913572,1.68175287 L126.66029,2.70438218 L126.816156,3.65883619 L127.001246,3.86336206 L127.001246,3.86336206 Z M124.663262,7.29160506 L124.819128,6.97020728 L124.916544,5.72357346 L124.799645,4.66198685 L124.877577,4.48667897 L125.559489,4.43798233 L125.74458,3.88284071 L125.578973,3.27900245 L124.254115,3.20108784 L122.938999,5.50930827 L124.254115,7.5253489 L124.663262,7.29160506 L124.663262,7.29160506 Z M115.009336,12.7943247 L115.428225,12.9501539 L116.908948,12.9111966 L117.16223,13.0962438 L117.142747,13.6513854 L117.337579,14.0604371 L118.477346,13.7390393 L119.802204,13.758518 L120.221092,14.4500102 L120.376958,15.2291563 L119.889878,16.7192733 L118.798819,19.2807163 L119.607372,19.9235118 L119.860653,19.7579433 L120.601015,18.0827791 L121.370601,17.3815475 L121.867423,15.2388957 L122.09148,15.0343698 L122.383728,13.9825225 L122.724684,13.3884236 L124.078766,9.92122328 L124.390497,8.67458946 L123.338405,9.21025242 L122.734425,9.2005131 L121.662849,7.86622534 L120.834813,8.22658043 L120.649723,6.82411738 L120.87378,5.43139366 L119.928844,5.40217568 L119.139775,5.61644087 L117.736984,6.97994661 L116.879723,7.22342977 L116.548509,7.68117813 L116.869982,7.94413995 L118.360447,8.19736245 L119.266415,10.8854166 L117.357062,11.6937807 L116.110137,11.5769088 L114.746313,11.8885673 L114.765796,12.2878797 L115.009336,12.7943247 L115.009336,12.7943247 Z M92.81797,31.9905376 L94.3474013,32.5456792 L94.3668845,33.8312704 L94.8929309,34.2403221 L96.2664966,33.7436164 L96.4808118,33.0910815 L96.3249462,32.9449916 L95.0487965,32.6625512 L94.4253341,31.7178365 L92.7790036,30.5393779 L91.7269107,30.8023398 L91.5515619,30.9971263 L92.08735,31.6496612 L92.81797,31.9905376 L92.81797,31.9905376 Z M101.059364,32.0587129 L101.468511,31.5327893 L99.4909664,31.3964387 L98.4096487,31.6983578 L97.3965223,32.8768164 L99.1500104,32.8573377 L101.059364,32.0587129 L101.059364,32.0587129 Z M86.5151544,38.0678775 L86.9340433,38.1457921 L87.9569113,37.4932572 L88.0835521,37.6977831 L88.0153609,38.379536 L88.1225185,38.7204124 L88.4439914,38.9833742 L88.9602962,39.1099855 L91.6684611,38.7009337 L93.6070396,39.6846057 L94.1915357,39.6261698 L94.7273237,39.3534686 L95.3020781,38.379536 L94.4935253,37.8536123 L93.4609156,37.7951763 L91.8048435,37.3763853 L90.6261099,37.3861246 L90.8793915,36.8991583 L91.5125955,36.3342773 L91.5613035,35.9641829 L91.1131899,35.5064346 L89.5642754,34.7565064 L88.1517433,34.6006772 L87.1678417,34.863639 L86.476188,36.1881874 L86.2716144,37.1134235 L86.3105808,37.756219 L86.5151544,38.0678775 L86.5151544,38.0678775 Z M86.9437849,41.8662149 L87.8205289,41.8856936 L88.7362394,41.6129924 L88.8531386,41.4766418 L88.0543273,41.2331587 L87.9179449,40.9799362 L87.8887201,40.3566193 L87.3042241,39.3924259 L86.0085912,39.1099855 L85.404612,39.304772 L85.258488,39.8599136 L85.69686,40.707235 L86.9437849,41.8662149 L86.9437849,41.8662149 Z M91.6002699,42.3629206 L92.136058,42.733015 L92.2919236,42.674579 L92.6523628,41.5058598 L92.9738356,40.9507182 L92.2919236,40.7851497 L90.8014587,41.0481115 L91.6002699,42.3629206 L91.6002699,42.3629206 Z M156.771578,166.597772 L155.894834,165.010262 L151.579304,162.107943 L149.806333,161.465147 L146.328582,160.754176 L144.575094,160.871048 L142.617032,160.500954 L140.629745,160.374342 L138.243053,160.588608 L137.49295,161.172967 L136.021968,162.838392 L135.164708,163.520145 L134.297705,163.802585 L133.469669,163.870761 L129.787344,161.85472 L131.16091,160.491214 L132.612408,159.273799 L134.14184,158.221951 L135.193932,156.585744 L134.054165,152.952975 L131.920755,150.206485 L125.393882,145.580305 L122.296053,145.531609 L119.509955,144.92777 L121.00042,144.898552 L122.714942,145.083599 L125.841996,144.664808 L127.332461,145.716656 L128.891117,146.583456 L129.767861,146.719806 L130.67383,146.651631 L131.316775,146.875636 L131.911013,147.294427 L130.401065,144.538197 L128.657318,142.005972 L127.790316,140.428201 L127.312978,138.782255 L128.189722,137.564839 L129.407422,136.795432 L127.118146,135.315055 L125.033443,133.474322 L122.8221,131.088187 L120.523082,128.857881 L119.159258,128.078735 L112.983083,125.760775 L111.804349,124.747885 L110.966572,123.306465 L109.281275,118.125143 L108.073316,113.343134 L107.079673,108.463731 L106.475694,106.983353 L105.394376,105.999681 L103.864945,104.908877 L101.127555,102.123429 L99.2279432,100.185303 L92.2529572,97.643339 L88.4732162,97.6628177 L85.5117696,99.0458021 L84.96624,99.1821527 L76.1987995,97.8770829 L74.7180762,97.3219413 L73.4711513,96.2603546 L74.9031666,96.9031502 L78.2542772,97.5264671 L80.1246645,97.6335997 L81.6638374,97.282984 L83.1543023,96.5622738 L86.524896,94.244314 L89.914973,94.0787455 L91.4833707,93.0366375 L91.9509676,91.7120891 L88.4147666,90.0953608 L85.2000384,90.2706687 L83.3978423,90.7381564 L81.6151294,90.786853 L83.1640439,90.368062 L84.6934751,89.5304799 L85.9404,89.0435135 L90.3143787,88.3520214 L91.8730347,87.7189651 L93.3634996,86.7547718 L94.9513805,85.2256975 L96.2957214,83.3167894 L99.1694936,80.6189959 L102.306289,75.7590719 L102.822594,74.7267033 L103.192775,73.61642 L103.679855,72.5937907 L105.199544,70.7043613 L106.884841,69.3311163 L107.829776,68.2305723 L107.907709,67.83126 L106.719234,65.4353856 L105.365152,64.1400551 L103.640888,63.6141315 L100.942465,64.0524012 L91.3664715,63.8186573 L89.9441978,63.8770933 L88.5121826,64.2277091 L87.7620793,64.1984911 L84.5376095,63.4583023 L82.8328294,63.4972596 L79.208954,64.4224956 L75.3123138,65.6788687 L73.3834769,66.0684418 L71.0844592,66.1366171 L72.1755184,64.1303158 L75.3902466,61.9097493 L75.9455179,61.2669537 L75.2051562,60.8384234 L73.2178697,60.5949402 L73.5977921,59.3385671 L74.162805,58.4328097 L77.7184892,56.5531196 L83.7875063,52.7742608 L87.0412009,51.1283146 L88.3368338,49.9790741 L88.7752058,49.3654965 L89.0090042,48.8687908 L89.038229,47.2228446 L90.0026474,45.742467 L90.2267043,45.206804 L90.1487715,44.8172309 L86.9827513,44.5153118 L83.8946639,45.177586 L80.6312277,45.3918512 L77.5041739,45.9762108 L72.3411257,46.3755232 L68.4347438,47.2715412 L67.6456742,46.1515187 L66.9637622,46.2878692 L64.625778,47.2618019 L64.041282,47.3299772 L63.35937,46.4436985 L62.7164243,46.0638647 L60.9629362,45.7522063 L60.1543834,45.9177748 L59.4822129,46.190476 L58.6054689,47.1254513 L58.3814121,47.7487683 L58.1865801,49.1512313 L57.9235568,49.8524628 L57.9820064,50.6413483 L58.6346937,51.586063 L58.9269417,52.3067732 L58.0891641,52.5599957 L54.8257279,52.5307777 L53.724927,52.7937395 L53.383971,53.3294025 L53.4424206,54.0403733 L53.2962966,54.7026475 L52.1662709,56.1927645 L52.4098109,56.7284275 L55.4784151,59.4943963 L55.7316967,60.0008413 L53.7151854,59.5333536 L53.2475886,59.5528322 L52.7215422,60.0690166 L48.6787779,60.0008413 L47.6461683,61.1695605 L47.0811554,62.0850572 L46.0388042,64.3056237 L46.019321,64.8023293 L46.3505354,65.6691294 L46.847357,66.253489 L48.3085971,66.759934 L46.5843338,67.237161 L45.4543081,67.7241274 L44.6652385,68.3571836 L44.3437657,68.9999792 L44.5678225,70.158959 L46.6427834,71.0647164 L46.944773,71.8828199 L47.8994499,73.1197144 L47.1298634,75.7688112 L44.5191145,78.6419126 L42.6195024,79.4989734 L42.4051872,79.8203711 L44.3535073,80.8235218 L41.8693991,82.3233781 L39.3463246,82.6447759 L37.6902525,83.5700119 L37.6512861,83.8037558 L38.8105366,84.0959356 L40.2133271,84.1446322 L40.5250583,85.8587537 L41.5576679,86.7450324 L42.9702,87.1735628 L44.8503289,87.35861 L46.3310522,86.6671178 L52.2247205,82.8979984 L52.7118006,82.7616478 L51.6889325,84.2030682 L50.432266,85.5957919 L50.0231188,86.8716437 L48.9418011,87.7092258 L48.0747987,89.5889158 L47.042189,91.0595542 L46.0777706,93.0853341 L45.4932745,95.4519905 L44.4411817,97.0687188 L43.6813368,102.016297 L43.9735849,102.347434 L44.4216985,102.454566 L45.5224994,102.123429 L45.5517242,102.230562 L43.7592697,103.905726 L42.9312336,104.86018 L42.3272544,105.882809 L40.7880815,109.574014 L40.4276423,110.567426 L40.3399679,111.2297 L40.8854975,111.814059 L42.2103552,111.960149 L42.6682104,111.872495 L43.1845152,111.463444 L43.7884945,110.674558 L47.3636619,102.892836 L47.6948763,101.724117 L47.2565042,99.1821527 L47.2954707,98.7049257 L47.4805611,98.2958739 L47.9578995,97.8089076 L49.7308708,96.3674872 L53.1112062,94.1761387 L54.5724463,93.4456892 L51.4648757,95.8123456 L50.6173564,96.8544536 L50.0815684,98.1887413 L49.9549276,99.6496403 L50.1302764,100.51644 L50.3543332,100.467744 L50.7439972,99.6593797 L51.7278989,99.5619864 L52.0688549,99.3282426 L52.5072269,98.4614425 L54.5042551,98.0426514 L55.2348751,97.6238604 L56.5499912,95.8610423 L57.2221616,95.1305927 L57.5338928,94.9650242 L56.7155984,96.5525344 L56.6084408,97.1563727 L59.1802233,98.8704942 L60.505081,99.4548538 L56.9591384,99.4256358 L56.627924,99.639901 L55.7804047,100.779402 L55.3030663,102.668832 L55.0887511,104.343996 L57.5436344,106.408733 L58.0891641,107.31449 L58.0989057,108.395556 L57.21242,110.041502 L56.0629111,111.297875 L52.7312838,115.602658 L50.9290877,118.904289 L50.0036356,118.417323 L49.0489587,118.952986 L48.9418011,120.34571 L49.3704316,121.592343 L50.82193,123.559687 L52.6143845,125.040065 L53.140431,123.335683 L53.8613094,122.254618 L54.4458055,121.826087 L57.066296,122.994806 L59.0925489,123.627863 L60.8752618,123.033764 L62.6871995,122.040352 L63.5152356,121.806609 L64.2166308,122.011134 L64.6939692,122.751323 L65.3174317,123.199332 L66.2526253,123.033764 L68.1327542,123.160375 L69.1361391,122.663669 L70.1200407,121.894263 L71.113684,121.339121 L72.1560352,121.20277 L73.1691617,120.861894 L75.0005826,119.741871 L76.9001947,119.410734 L82.5600646,119.449692 L83.2614599,119.624999 L79.4622357,120.579453 L76.0429339,123.325944 L73.5880505,127.611247 L73.7633993,129.59807 L76.0234507,132.938659 L77.3093419,134.506691 L79.6278429,136.590907 L80.5338117,136.629864 L81.478747,136.064983 L82.4918734,135.714367 L84.5376095,135.578017 L84.8006328,136.444817 L84.3817439,138.324507 L83.6218991,140.038628 L81.4690054,141.16839 L81.0501165,142.453981 L81.1475325,143.895402 L81.868411,144.450543 L82.8036046,144.742723 L81.527455,146.193883 L80.3487213,147.771654 L80.1344061,149.281249 L81.4495222,151.842692 L82.2970414,152.651056 L83.3686175,153.03089 L84.2063951,153.050369 L84.8883072,153.478899 L82.9886951,153.839254 L82.1314342,153.576292 L79.9785405,151.063546 L78.2737604,151.72582 L79.1407628,154.511268 L75.575337,152.709492 L73.9192649,152.845843 L72.2047432,153.46916 L70.2856479,153.732122 L68.3762942,153.527596 L67.6359326,153.634728 L62.5605587,155.368329 L59.8523938,156.907142 L58.8003009,157.725246 L58.1573553,158.738136 L57.3682856,159.614675 L55.2933247,160.763916 L53.3255214,162.156639 L52.5267101,163.130572 L52.4195525,163.919457 L54.065883,163.73441 L55.9849783,162.750738 L57.9332984,162.030028 L60.0472258,161.70863 L62.1319283,161.650194 L61.8201971,162.672824 L61.6838147,163.637017 L62.3852099,164.864172 L62.7456491,166.042631 L62.1416699,166.977606 L61.9078715,168.039193 L62.3072771,169.081301 L63.3983364,169.412438 L62.1221867,170.795422 L61.1577682,172.499804 L60.212833,173.892528 L59.0048745,174.905418 L56.1311023,176.570843 L53.1209478,177.544775 L47.6948763,179.814039 L44.1586753,180.768493 L42.5026032,181.732686 L41.0608463,183.183846 L42.0350064,183.573419 L42.48312,184.683702 L42.3272544,186.095904 L42.9702,186.816614 L46.4771762,188.482039 L49.6334548,187.284102 L51.6694493,186.15434 L52.8286998,185.940075 L55.2056503,186.086165 L56.0921359,186.943226 L56.9104304,187.31332 L59.9108434,187.780808 L58.4885697,188.462561 L57.3780272,189.679977 L59.3360889,189.738413 L61.2941506,189.407275 L62.2293443,189.085878 L63.0866051,189.20275 L65.1031164,190.283815 L68.1814622,192.923172 L72.5846657,193.410139 L73.1594201,193.24457 L76.2767323,191.209051 L78.0302204,190.313033 L82.0047934,189.426754 L83.3004263,188.550215 L85.5312528,187.040619 L87.3626737,186.095904 L84.5473511,188.852134 L82.8328294,190.342251 L81.0208917,191.647321 L79.4135277,193.09848 L76.4813059,196.380633 L74.8544586,197.29613 L72.8574305,197.520135 L70.8896272,197.461699 L67.1001446,196.799424 L63.2229875,196.750728 L57.9527816,197.374045 L57.4364768,197.637006 L55.3420327,201.016553 L51.4941005,202.058661 L50.9680541,203.675389 L50.5881316,205.350553 L50.1302764,206.285529 L45.1425769,210.366306 L44.5191145,211.379196 L43.4475384,211.603201 L42.6000192,212.187561 L41.8693991,213.112797 L40.0866862,214.749004 L36.5017772,217.437058 L32.605137,218.469426 L31.0562225,219.842671 L30.9588065,220.991912 L31.4653698,221.556793 L32.702553,220.865301 L34.6995811,220.427031 L36.5115188,220.87504 L38.0214669,222.17037 L39.8334046,221.819755 L41.1777455,219.793975 L41.8791407,219.238833 L45.2594761,217.232532 L46.8083906,216.502082 L50.5881316,215.430756 L52.7312838,215.080141 L54.1048494,215.060662 L55.4686735,214.65161 L55.8680791,214.339952 L56.23826,214.388648 L57.309836,215.274927 L60.5732722,216.599476 L62.2585691,217.787673 L64.1679228,217.563669 L65.8921861,215.839808 L67.0514366,213.599763 L67.9281806,211.087017 L69.4186455,209.30472 L76.2864739,207.541902 L77.9328044,207.415291 L79.9590573,207.765906 L81.8586694,208.525574 L83.6121575,209.645596 L85.4825448,210.005951 L86.18394,209.343677 L86.9340433,209.197587 L92.0970916,209.928037 L92.7302956,209.820904 L93.353758,209.402113 L92.6913292,208.447659 L92.3698564,207.356855 L95.0877629,207.57112 L98.0686927,207.152329 L99.5104496,207.201025 L100.932723,206.889367 L104.059777,205.350553 L102.812852,203.753304 L104.936521,204.581146 L107.440112,204.853848 L109.593006,205.457686 L111.667967,206.363443 L113.090241,206.509533 L118.691661,205.574558 L122.792875,205.486904 L129.504838,206.55823 L131.092719,206.295268 L133.060522,205.379771 L135.047808,204.6688 L137.609849,203.987047 L139.129539,202.974158 L142.227368,203.149465 L142.587807,202.185272 L143.766541,200.597762 L149.212096,198.328499 L149.767367,197.773357 L150.225222,195.075564 L150.27393,193.984759 L149.60176,193.741276 L147.682664,193.731536 L143.659383,194.052934 L141.594164,194.062674 L138.272278,193.497793 L137.619591,193.117959 L136.957162,191.79341 L135.78817,191.442795 L134.054165,191.842107 L135.456956,191.101918 L136.908454,190.712345 L138.632717,190.64417 L140.327756,190.332511 L141.87667,189.63128 L142.578066,188.053509 L142.139694,187.16723 L139.791968,186.329648 L143.230753,184.693441 L145.607703,185.160929 L147.068943,184.781095 L148.530184,183.914295 L148.588633,182.726097 L147.887238,181.742425 L147.994395,181.284677 L148.715274,181.23598 L149.367961,181.586596 L150.994808,180.797711 L153.4984,178.879063 L154.073154,178.187571 L154.501785,177.311032 L155.173955,174.885939 L156.148115,173.006249 L157.024859,170.922033 L157.102792,168.643031 L156.771578,166.597772 L156.771578,166.597772 Z M27.5492463,60.3319784 L25.4255774,61.364347 L26.3899959,62.4161943 L26.8283679,62.6499381 L27.2375151,62.6499381 L28.0265848,62.1824505 L29.0494528,61.1111245 L29.9456801,61.0819065 L31.9329666,59.397003 L33.6474883,58.7834254 L36.238754,57.1764365 L36.6381597,56.7673848 L36.7160925,56.0758926 L36.2290124,55.7544948 L34.3878499,55.7350162 L36.6284181,54.7610835 L37.4174877,53.8845441 L38.1968157,53.7968901 L40.6127327,50.2809932 L40.8562727,48.8395728 L40.5932495,47.7585076 L40.3497095,47.4760671 L39.3755494,47.7974649 L35.2743356,49.8816808 L32.0401242,51.1185753 L31.4556282,51.527627 L31.2315714,51.8782428 L32.0011578,53.6215823 L31.9524498,53.7871508 L30.6275921,53.6508002 L29.4391168,53.9235014 L28.5428896,53.2125305 L27.5979543,52.988526 L27.3251895,53.1248766 L27.0134583,53.5339283 L26.3315463,53.9332407 L26.0587815,54.8195195 L26.0587815,55.6765802 L26.2049055,56.0077173 L26.7894015,56.1440679 L27.0719079,56.4946837 L27.5589879,56.5823376 L26.4387039,57.2446118 L26.3120631,57.5367916 L27.1011327,58.1114119 L29.1566104,58.9587333 L29.2442848,59.1437805 L27.802528,59.7476188 L27.5492463,60.3319784 L27.5492463,60.3319784 Z M23.1557845,67.0326352 L24.802115,65.1432058 L23.1752677,64.0037046 L22.0842084,64.5198889 L21.2561724,64.4127563 L20.1553715,64.7731114 L19.4344931,64.5393675 L18.9474131,64.6270215 L18.4505914,64.9484192 L18.1388602,65.3672103 L18.119377,65.6496508 L20.9931492,67.0228958 L23.1557845,67.0326352 L23.1557845,67.0326352 Z M40.7588567,76.9472698 L41.3628359,76.9277911 L41.9570736,76.5771753 L44.0222929,74.8727932 L45.6978482,73.8209459 L46.2044114,73.2463256 L46.2044114,72.720402 L45.7075898,72.3892649 L42.9604584,72.5061368 L40.0574614,72.0970851 L39.6970222,71.7269906 L39.0638182,71.4737681 L39.0735598,70.6751434 L38.849503,69.5551208 L39.2489086,68.5032735 L39.3755494,67.6072554 L39.239167,65.9807879 L38.1286245,64.6465001 L37.2518805,64.2277091 L36.4238444,64.3348417 L35.946506,65.6204328 L32.1083154,66.4385362 L32.1083154,66.6430621 L32.5272042,67.295597 L32.4979794,67.5682981 L32.0985738,67.8994352 L31.4945946,68.0650038 L30.5691425,67.7923026 L29.7118817,68.5422308 L29.5462745,68.8733679 L29.7800729,69.4772062 L30.6957833,70.4900961 L34.2709507,71.201067 L35.313302,73.0223211 L35.84909,73.7332919 L36.6966093,74.1033864 L38.3234565,74.152083 L40.3886759,73.7625099 L40.3399679,76.7914405 L40.7588567,76.9472698 L40.7588567,76.9472698 Z M19.1812115,70.1200017 L19.0253459,71.7854266 L18.606457,73.1878896 L18.6161986,73.9475571 L18.9961211,75.194191 L19.4929427,75.5058494 L20.3502035,75.612982 L21.0321156,75.5058494 L21.1003068,75.2818449 L21.412038,70.3050489 L20.9834076,70.0615658 L19.1812115,70.1200017 L19.1812115,70.1200017 Z M34.8846716,78.7685239 L35.4691676,78.8269598 L35.9659892,78.563998 L36.3069452,78.1452069 L36.3556532,77.6485013 L36.141338,77.2102316 L35.4886508,76.8206585 L33.6767131,77.4829327 L34.3391419,78.4373868 L34.8846716,78.7685239 L34.8846716,78.7685239 Z M16.5996873,78.8269598 L18.021961,78.5445193 L18.3434338,78.1841643 L18.265501,77.8432878 L17.5446226,77.4634541 L16.4535633,77.7069372 L16.0444161,78.4081688 L16.1028657,78.6613913 L16.5996873,78.8269598 L16.5996873,78.8269598 Z M32.0108994,84.6315985 L31.679685,84.5049873 L30.6373337,84.7289918 L28.9130704,86.1022369 L28.9422952,86.3944167 L29.8580057,86.2775448 L31.1828633,85.4302233 L32.0108994,84.6315985 L32.0108994,84.6315985 Z M41.9278487,87.5436572 L40.2035855,87.3099134 L39.0638182,85.7710998 L37.9922421,85.0406503 L37.4369709,84.9627357 L36.7258341,85.0990862 L35.0015708,85.7321425 L34.6606147,85.9951043 L34.3781083,86.5989425 L34.4755243,86.9495583 L37.0570485,88.1961921 L36.0049556,90.9232036 L34.1637931,91.2835587 L33.6864547,91.6536531 L33.8228371,92.2087947 L35.9854724,92.3159273 L42.434412,91.1764261 L43.0383912,88.1961921 L41.9278487,87.5436572 L41.9278487,87.5436572 Z M36.7160925,100.38009 L36.6284181,101.315065 L36.7355757,101.82151 L36.9985989,102.142908 L37.7974101,102.211083 L38.1578493,101.987079 L41.3433527,98.0816087 L42.7558848,95.7831276 L42.1713888,95.7441703 L41.5479263,95.9779142 L39.1807174,97.2732446 L38.557255,98.1108267 L38.5669966,98.3640492 L39.4534822,98.714665 L37.2811053,99.7178156 L36.7160925,100.38009 L36.7160925,100.38009 Z M32.3323722,106.233425 L33.1604083,106.223686 L35.9075396,105.201057 L36.5212604,104.42191 L36.5504852,103.866769 L36.1705628,102.240301 L35.897798,99.6204224 L34.4560411,100.146346 L32.8194522,101.130018 L32.3323722,100.779402 L31.8452922,100.828099 L31.1926049,101.168975 L30.6275921,101.626724 L30.2866361,102.11369 L30.1405121,102.922054 L29.5365329,104.090773 L29.5754993,104.382953 L30.2184449,104.246603 L32.264181,102.805182 L32.7902274,102.678571 L33.0142843,102.84414 L32.6635866,103.749897 L33.0337675,104.938095 L32.3226306,105.980203 L32.3323722,106.233425 L32.3323722,106.233425 Z M49.11715,109.48636 L51.1336613,109.466882 L51.4064261,108.531906 L51.4161677,106.905439 L50.7342556,105.00627 L50.383558,104.509564 L49.3899148,103.983641 L48.3085971,104.13947 L47.8312587,104.519304 L47.3734035,105.00627 L46.9155482,105.999681 L47.5877187,108.804607 L48.4060131,109.301313 L49.11715,109.48636 L49.11715,109.48636 Z M33.3552403,138.168678 L34.7580307,137.389531 L35.897798,136.016286 L36.3459116,135.09105 L36.8816997,134.37034 L38.8105366,134.165814 L40.5055751,133.610673 L41.5089599,131.584893 L40.3204847,131.555675 L39.9503038,131.370627 L40.3302263,129.393544 L40.0866862,127.913166 L40.9439471,128.176128 L41.6550839,128.672834 L42.2200968,129.753899 L42.8630424,130.133733 L43.2039984,128.926056 L43.0091664,127.825513 L42.5415696,126.471746 L41.7622415,125.575728 L39.2683918,125.380942 L38.2065573,125.585467 L36.9498909,126.033476 L37.0375653,125.147198 L38.9566606,124.319355 L39.9015958,123.647341 L39.9405622,122.410447 L37.7194773,120.384667 L36.1023716,118.056968 L35.5665836,115.700051 L34.2417259,114.209934 L32.556429,114.219673 L30.3548273,113.703489 L28.7572048,113.722967 L25.0553966,114.6969 L23.0096605,114.959862 L21.996534,114.794293 L21.0515988,114.920905 L19.4637179,117.01486 L18.265501,117.677134 L17.0380594,117.501826 L16.4827881,116.781116 L13.7843648,118.095925 L13.3362511,118.592631 L12.3718327,120.608671 L12.2257087,121.183292 L11.2807734,122.244878 L10.3553214,123.423337 L9.40064453,123.881085 L8.01733725,124.25118 L7.2087844,124.611535 L6.27359075,124.426488 L5.04614908,124.455706 L4.39346185,124.855018 L4.38372025,125.166676 L4.70519306,125.517292 L5.70857792,126.062694 L6.82886198,126.549661 L6.64377157,126.978191 L5.95211793,127.465157 L1.7729713,128.682573 L0.477338427,129.413023 L0,129.89025 L0.331214419,130.698614 L3.25369458,133.123706 L3.76999941,133.386668 L4.08173063,134.789131 L6.85808678,135.38323 L7.91017964,136.269509 L8.8940813,136.474035 L11.0859414,136.39612 L11.9237191,136.727257 L12.4497655,136.483774 L12.7907215,136.016286 L14.7682664,134.818349 L15.4306953,134.292425 L15.1481888,133.561976 L14.8169744,133.006834 L16.0638993,131.90629 L17.5446226,130.825225 L18.216793,130.854443 L19.2883691,131.516717 L20.1358883,132.451693 L20.1845963,133.172403 L20.3014955,133.698327 L21.071082,134.80861 L21.60687,135.198183 L23.1460429,135.422187 L23.4675157,135.860457 L22.9999189,137.486925 L23.1752677,138.022588 L24.8118566,138.051806 L26.5750863,137.915455 L27.1790655,137.98363 L27.8414944,137.642754 L28.8546208,137.272659 L30.2281865,137.399271 L31.7478762,138.012848 L33.3552403,138.168678 L33.3552403,138.168678 Z M58.1281305,157.121407 L59.7452361,156.332522 L61.1090602,155.378068 L63.0866051,154.423614 L63.7392924,153.566553 L62.0150291,153.624989 L61.3720834,153.245155 L59.6380785,151.258333 L57.261128,151.219375 L55.4686735,151.901128 L55.4491903,154.501528 L56.6084408,156.244868 L57.4754432,156.21565 L58.1281305,157.121407 L58.1281305,157.121407 Z M104.352025,206.343965 L103.075875,207.181547 L100.884015,207.814603 L100.036496,208.603488 L100.835307,208.525574 L104.186418,210.229956 L105.092387,210.220217 L106.02758,210.005951 L106.38802,209.665075 L106.884841,208.817754 L108.326598,208.097043 L107.089415,207.162068 L104.352025,206.343965 L104.352025,206.343965 Z" id="Stroke-15" sketch:type="MSShapeGroup"></path>
        </g>
    </g>
</svg>