<?xml version="1.0" encoding="UTF-8" standalone="no"?>
<svg width="100px" height="113px" viewBox="0 0 100 113" version="1.1" xmlns="http://www.w3.org/2000/svg" xmlns:xlink="http://www.w3.org/1999/xlink" xmlns:sketch="http://www.bohemiancoding.com/sketch/ns">
    <!-- Generator: Sketch 3.4.4 (17249) - http://www.bohemiancoding.com/sketch -->
    <title>germany</title>
    <desc>Created with Sketch.</desc>
    <defs></defs>
    <g id="Assets" stroke="none" stroke-width="1" fill="none" fill-rule="evenodd" sketch:type="MSPage">
        <g id="germany" sketch:type="MSArtboardGroup" stroke="#FF6A00" fill="#FFFFFF" stroke-linecap="round" stroke-linejoin="round">
            <path d="M28.062504,5.86120449 L30.7504341,5.62330659 L31.0655263,5.2632449 L28.4226095,5.15394046 L28.3325831,4.75530073 L28.5512186,3.98373997 L28.7055495,3.59795959 L29.2135554,3.04500771 L28.7248408,3 L27.5287763,5.03820635 L27.3808758,6.95424891 L27.6252331,6.68420264 L28.062504,5.86120449 L28.062504,5.86120449 Z M99.2733586,53.3250507 L99.0611536,52.5213416 L98.72677,52.1355612 L96.7397595,51.2997037 L96.5789981,51.0103684 L96.8555077,49.878746 L96.6947463,49.4029502 L96.2124622,48.895006 L95.5629863,47.8984067 L95.3057681,47.0496899 L96.0774227,46.0530905 L96.2574754,45.3201078 L96.5854286,44.3170788 L96.8233554,43.764127 L96.8683686,43.6162445 L96.3410713,43.2240344 L96.1931709,42.6775122 L96.3153495,41.8866624 L96.025979,41.3015622 L95.3250595,40.9222115 L94.8620667,40.420697 L94.6370008,39.7970187 L94.7849013,38.8132787 L95.2864768,37.4759067 L94.116134,35.8749182 L91.2674426,33.9974536 L89.8977558,32.6858003 L89.9942126,31.9399583 L90.5665231,31.2584129 L91.6275481,30.6540237 L92.418494,29.5738386 L92.842904,28.3007633 L92.8557649,28.0564358 L92.8557649,27.1434222 L91.5375217,23.4142118 L91.3188862,22.4819093 L91.145264,21.3631461 L91.0616681,21.0545218 L90.9652112,21.0223735 L88.5473603,20.540148 L87.7435535,20.0772115 L86.8239985,19.3699475 L86.322423,17.1131323 L85.2421066,15.2871051 L82.2969584,15.4542766 L79.0624397,13.5253747 L77.7763488,11.7829333 L76.3873706,11.6286212 L75.1141406,11.3135672 L72.9470774,11.0178023 L70.8636101,12.6509392 L69.9954987,13.5125154 L68.6451032,14.2969355 L68.0406405,15.0813556 L64.6839432,15.3964096 L63.6615009,15.8271977 L61.1150408,17.8525447 L60.4591345,18.1290206 L57.3017812,17.2481554 L55.3083403,17.4346159 L54.639573,17.2417257 L54.1701498,16.3480012 L56.2793389,14.9077544 L56.8773712,13.5575231 L56.3307826,12.2201511 L55.7198894,12.2651588 L53.3277603,13.068868 L49.3858916,11.416442 L47.8039997,11.8150817 L47.3667288,11.2557002 L47.0773584,10.7348966 L44.157932,10.9470759 L44.9295865,10.374835 L45.8684329,9.47468073 L45.8041284,8.21446482 L45.0839174,7.34002929 L44.4344415,6.76778839 L42.8847019,6.4077267 L42.8268279,6.15696945 L42.6660665,6.15696945 L41.9908688,6.04123534 L41.5150151,5.75832973 L40.2675069,5.95764959 L38.6020192,6.42058605 L37.6824642,6.39486735 L36.9558228,5.89978253 L33.9656614,5.1925185 L33.4769468,5.13465144 L31.5027972,5.10893275 L31.4963668,5.10250308 L31.6056845,6.61990591 L32.7245836,7.91869986 L33.6698605,9.30107956 L34.4736673,10.0533513 L34.4029323,11.0178023 L33.1104109,11.5578948 L31.1555527,11.9629642 L30.9111954,12.5609238 L31.1041091,13.3582032 L32.0751077,13.3582032 L32.5509614,13.1138757 L33.3033245,13.3003362 L33.8820655,13.8275694 L33.8049,17.3703192 L33.9785223,17.846115 L34.5894155,18.3797779 L35.5604141,18.7205505 L37.1294451,18.8555737 L38.1454569,19.2927914 L41.527876,22.8226819 L43.1612115,23.4399305 L41.9715774,23.2920481 L41.032731,22.8162522 L38.2419137,19.91004 L37.0072664,19.3313695 L33.7148736,19.6078454 L30.7375731,19.0741826 L30.26815,19.5692674 L29.7537136,20.3536875 L29.4900649,21.858231 L29.8115877,23.4077822 L29.3100122,25.632449 L29.3100122,23.9928824 L28.8791718,23.4785086 L27.6316636,22.7390962 L27.2779886,23.0412908 L27.0207704,24.0314605 L26.6413735,24.9316147 L26.1655199,25.1116455 L25.1816603,24.62942 L25.8311363,23.5942427 L24.1785094,21.5881847 L20.1080316,21.4981693 L16.4233811,21.7103485 L15.5681307,22.0768399 L14.4749534,23.4077822 L14.0955566,24.4943969 L13.8383384,25.8832063 L14.880072,26.5518923 L15.3494952,27.1627112 L15.2273166,28.4615052 L15.1823034,31.0269447 L15.0601248,31.4834515 L14.3592052,32.5636365 L13.6004115,34.5118275 L13.3753456,35.7913324 L13.1567102,36.03566 L10.2951579,36.0292303 L9.88360877,36.2542689 L9.81930422,36.5307448 L9.95434377,36.8586581 L9.87717832,37.1865715 L9.64568195,37.4566177 L9.75499968,37.8809761 L10.2372838,38.3632016 L11.1375474,38.6653962 L12.1021156,38.6911149 L12.6036911,38.6396776 L12.9573661,38.9804502 L13.3046106,39.5141131 L13.2660279,40.1827991 L13.0988361,41.0829533 L12.6229824,41.9123811 L11.272587,42.8704024 L10.6745547,43.2111751 L10.1151051,43.3847762 L9.83859559,43.6355335 L9.7099865,43.9570171 L9.72927786,44.2399228 L10.6488329,45.0114835 L10.6231111,45.1915144 L10.3401711,45.5901541 L9.96720468,45.9695048 L7.51720147,46.7474952 L6.50762009,46.6896282 L5.92244872,47.0818382 L5.74239599,47.1525646 L5.11864189,46.7925029 L3.71037232,46.3810039 L3.17021413,46.5224567 L2.86798277,46.7474952 L1.96771912,47.0239712 L1.3182432,47.4547593 L1.29895184,48.0141408 L2.38569867,49.4479579 L2.7779564,49.7308635 L2.7779564,50.2645264 L3.31168414,50.939642 L3.84541187,51.7819292 L3.89685551,52.3220217 L3.8132596,52.8621143 L3.50459778,53.633675 L2.46286412,55.4404132 L2.44357276,55.7876155 L2.52073822,56.0512321 L2.85512186,56.1219585 L3.10590959,56.2634113 L3.02874413,56.5013092 L1.14462092,57.7550954 L0.900263649,57.980134 L0.128609093,57.9158373 L0,58.1280165 L0.0964568195,58.4623595 L0.392257733,58.7581244 L1.04173365,58.9188663 L1.6011832,59.2339202 L2.03845412,59.8575985 L1.38254775,61.9986796 L1.50472638,62.2494369 L2.72651276,62.9888493 L3.09304868,63.5675199 L3.97402096,64.1333311 L3.21522732,64.8470248 L3.31811459,65.1620788 L3.57533278,65.4835624 L4.5784837,65.6764526 L5.06719825,66.1458187 L5.08005916,66.8595124 L5.27940325,68.0297129 L3.17021413,69.1870541 L2.54002958,70.485848 L2.48215549,70.7430349 L2.37926821,71.115956 L2.37283776,71.9518135 L2.66220822,72.787671 L3.37598868,73.6106691 L3.92257733,74.2086287 L4.66851006,74.6908542 L5.94174008,75.1409313 L6.449746,75.2373764 L6.50118963,75.854625 L6.38544145,76.504022 L5.93530963,76.8640837 L5.50446917,77.3784575 L5.17651598,78.0149951 L4.81641052,79.2302033 L4.75210597,80.0660608 L5.17008553,79.9889047 L5.99961417,80.201084 L6.82914282,80.8761996 L7.16352646,81.557745 L7.24712237,81.9242363 L7.60722783,82.3293057 L8.97691467,84.1489032 L9.42704649,84.2389186 L9.9221915,83.9624427 L10.2501447,83.5702326 L10.7131374,83.4930765 L11.4526397,83.6731074 L11.9284933,83.8788569 L12.1406983,84.6697067 L12.2950293,84.8240189 L12.6229824,84.6504177 L13.1952929,84.6118397 L14.101987,84.8111595 L15.3687866,84.586121 L16.378368,84.2582076 L16.8928043,84.271067 L17.7030416,85.1905102 L18.641888,85.5377126 L20.7253553,85.8141885 L22.956723,86.2449766 L23.8312649,86.5986086 L24.4292972,86.7722098 L24.4678799,87.987418 L24.2878271,88.1738785 L22.0178767,90.6235839 L21.0597389,91.4980195 L20.5581635,92.7518057 L20.198058,94.6678483 L19.5035689,96.4938754 L18.4811266,98.2234574 L18.0952993,99.5222514 L18.3525175,100.390257 L18.1596039,101.746918 L17.5165584,103.598664 L17.3879493,105.000333 L17.7737766,105.945495 L18.3332262,106.144815 L19.2463507,106.466298 L21.8121021,106.549884 L23.676934,106.376283 L24.8537072,105.945495 L26.3005594,105.945495 L27.2715581,106.183393 L27.4451804,106.151244 L27.708829,106.093377 L27.9789081,105.861909 L28.8984631,105.701167 L29.0206418,105.508277 L28.9884895,105.308957 L28.8212977,105.212512 L27.6959681,105.315387 L27.2651276,105.161075 L27.1622404,104.807443 L27.5287763,104.196624 L28.3647354,103.695109 L29.0720854,103.572945 L29.5736609,103.707969 L30.7954472,104.633841 L31.0912482,104.66599 L31.2648704,104.498818 L31.5220886,104.402373 L31.9464986,104.582404 L32.4159218,105.161075 L32.4995177,105.25109 L35.2517523,105.045341 L35.8755064,105.045341 L37.7339078,106.054799 L39.6694746,107.102836 L39.9524146,106.967813 L41.0906051,107.083547 L41.810816,106.729915 L42.1966433,106.382712 L43.1997942,106.710626 L44.6787988,107.372882 L45.3797183,107.81653 L45.6626583,108.157302 L45.8234197,108.446638 L45.7333934,108.941722 L46.067777,109.134613 L46.7686965,109.211769 L47.2316893,109.359651 L47.0644975,110.009048 L47.0323452,110.549141 L47.6753907,110.478414 L48.4856279,110.066915 L49.1222429,109.327503 L49.5145007,108.607379 L49.816732,106.864938 L49.9196193,106.723485 L50.4019034,106.858508 L52.3696225,106.781352 L53.295608,107.102836 L54.7681821,107.160703 L54.7424603,107.430749 L54.9996785,107.861537 L55.6555848,108.472356 L55.9771076,108.877426 L56.6587358,108.948152 L57.7133303,108.723113 L58.330654,108.498075 L58.5621503,108.658817 L59.5267185,108.498075 L60.3755386,108.00299 L60.5877436,107.623639 L61.4494245,107.360023 L62.6133368,106.742774 L64.2080895,106.273408 L69.44891,105.765464 L69.6482541,105.386113 L69.5646582,104.505248 L69.7061282,104.376655 L70.3684651,104.595263 L71.4294901,104.801013 L72.2397273,105.109637 L72.7734551,105.514707 L73.2621696,105.533996 L74.0145328,105.25109 L75.0369751,105.06463 L75.9951129,105.488988 L76.2780529,105.939065 L76.110861,106.176963 L76.1365829,106.543454 L76.4323838,106.852079 L77.2168992,107.353593 L78.2200502,107.784381 L78.7344865,107.752233 L78.9274002,107.334304 L79.1010224,106.331275 L79.1588965,105.263949 L78.9209697,104.65313 L78.3808115,104.505248 L77.7377661,104.453811 L77.396952,104.331647 L77.5127001,103.990874 L78.0207061,103.122868 L78.0014147,101.959097 L76.831072,100.634585 L75.8150601,99.3550799 L75.8150601,98.9242918 L76.406662,98.1655904 L77.3326474,97.5612011 L79.377532,96.5646018 L80.0205775,96.3524226 L80.8565366,96.1852511 L82.0461707,95.773752 L82.6184811,95.3493936 L82.9978779,94.8928868 L83.5316057,92.5010484 L83.6602148,92.3981737 L83.8274066,92.2631505 L85.9301653,93.0861487 L86.1166484,92.9446959 L86.4703235,92.8096728 L87.1455212,92.1795648 L87.2869912,91.703769 L87.2612694,90.7907554 L87.3062826,89.9356089 L87.4348916,89.6655626 L86.9268857,88.9775876 L85.968748,88.1288708 L84.4318693,86.9651 L83.2486657,87.022967 L82.8049643,86.7143427 L82.6056202,86.2835546 L82.1040448,85.5505719 L81.5381647,85.0361981 L80.862967,84.8368782 L79.8855379,84.1810516 L78.5801556,82.7600938 L77.3840911,81.7763538 L76.2394701,81.7892132 L75.5128288,81.2748394 L74.766896,80.5997237 L74.2203074,79.9503267 L73.3650569,78.3621975 L72.7477333,77.4556136 L72.2654492,76.896232 L71.7188605,76.4268659 L71.5195164,76.0603745 L72.1754228,75.2180874 L72.4069192,74.8001586 L72.6898592,74.478675 L72.8506205,74.1379023 L72.8441901,73.8807154 L72.2397273,73.0512876 L71.4230596,72.4468983 L70.2334255,71.8360794 L69.4746319,71.0709483 L69.1916919,70.3701139 L69.1080959,69.9779039 L68.5872291,69.4571003 L68.1628191,68.6919693 L68.1563887,68.2290328 L68.2592759,68.1004393 L68.6515337,68.1004393 L69.095235,68.4154933 L69.7189891,69.0198826 L70.2334255,69.9007478 L70.5420873,69.5664048 L71.1143978,68.6276725 L72.1368401,67.5603468 L73.1914346,66.9559575 L74.1431419,66.9045202 L74.9147965,66.7373487 L75.5642724,66.435154 L76.689602,66.5573178 L77.5127001,66.7759267 L77.7763488,66.6409036 L78.0978715,66.0879517 L78.3100765,65.6057262 L80.1106038,65.3292503 L80.721497,64.409807 L81.0687416,64.4162367 L81.4674297,64.2747839 L81.8468266,63.9275815 L82.2133625,63.7861287 L82.5027329,63.9597299 L82.8885602,64.0690343 L83.2872484,63.8504255 L83.8595589,62.7959591 L84.1875121,62.6352173 L85.7694039,62.4680458 L87.9236062,61.8507972 L89.0039226,61.2978453 L90.071378,60.9956506 L91.215999,60.4619878 L93.0358176,59.9411843 L93.1194135,59.7290051 L92.2577326,59.2017719 L91.9683622,58.8609992 L91.7690181,58.5137969 L92.0583885,58.1344462 L92.4570767,58.018712 L92.9779435,58.1794539 L94.5148222,58.4044924 L94.9392322,58.6231013 L95.106424,59.1631938 L95.5051122,59.671138 L95.813774,59.7225754 L95.7237477,60.5455735 L96.2188927,60.8606275 L96.9326731,61.1113848 L97.4085268,61.0599474 L97.73648,60.7256044 L97.8586586,60.4941362 L97.9101022,60.320535 L98.9968491,58.4237814 L99.4791332,57.2278623 L100,55.0482031 L99.2733586,53.3250507 L99.2733586,53.3250507 Z M29.3228731,7.08284237 L28.7827149,7.34002929 L28.5962318,7.66794261 L29.1556813,7.98299659 L30.1652627,8.02157463 L30.5832422,7.68723163 L30.4353418,7.19857648 L29.7665745,7.04426433 L29.3228731,7.08284237 L29.3228731,7.08284237 Z M79.2039097,12.4130413 L79.5125715,12.9467042 L81.3838338,14.0268892 L81.9175616,13.9754518 L82.6184811,12.7859623 L83.8209761,12.773103 L85.0299016,13.5510934 L85.3064112,13.0817273 L85.0234712,12.1687137 L83.8724198,11.5900432 L83.6409234,11.06281 L83.8724198,10.7348966 L84.5797698,10.0919293 L84.4382998,9.77044569 L84.200373,9.53254779 L82.6570639,9.01174427 L82.2133625,8.54237814 L81.9111311,7.87369215 L80.9980066,7.89941084 L79.9819947,8.6966903 L79.8983988,9.45539171 L79.3260884,9.97619523 L79.3839624,10.451991 L79.1396052,11.9758235 L79.2039097,12.4130413 L79.2039097,12.4130413 Z M57.5654299,11.7186366 L59.1987654,11.6929179 L59.1730435,11.4100123 L58.6714681,10.5612955 L57.0895762,10.1240777 L56.6523053,10.3684053 L56.3114912,11.0370913 L56.9416758,11.1721144 L57.5654299,11.7186366 L57.5654299,11.7186366 Z M86.8497203,16.8816641 L87.383448,17.4153269 L87.1905344,18.2061767 L87.4606135,19.0163155 L88.7724262,19.2349244 L90.0970999,19.0806122 L90.5408012,19.1320496 L90.3607485,18.476223 L90.4893576,18.0454349 L88.6245258,16.9009531 L86.3481448,15.6407372 L86.2838403,16.1101033 L86.3610057,16.5601804 L86.8497203,16.8816641 L86.8497203,16.8816641 Z" id="Stroke-163" sketch:type="MSShapeGroup"></path>
        </g>
    </g>
</svg>