<?xml version="1.0" encoding="UTF-8" standalone="no"?>
<svg width="188px" height="186px" viewBox="0 0 188 186" version="1.1" xmlns="http://www.w3.org/2000/svg" xmlns:xlink="http://www.w3.org/1999/xlink" xmlns:sketch="http://www.bohemiancoding.com/sketch/ns">
    <!-- Generator: Sketch 3.4.4 (17249) - http://www.bohemiancoding.com/sketch -->
    <title>iraq</title>
    <desc>Created with Sketch.</desc>
    <defs></defs>
    <g id="Assets" stroke="none" stroke-width="1" fill="none" fill-rule="evenodd" sketch:type="MSPage">
        <g id="iraq" sketch:type="MSArtboardGroup" stroke="#FF6A00" fill="#FFFFFF" stroke-linecap="round" stroke-linejoin="round">
            <path d="M185.712481,162.078725 L184.825995,161.348275 L184.007701,159.789983 L183.695969,158.699178 L183.88106,158.085601 L183.442688,157.170104 L182.371112,155.981906 L181.338502,155.319632 L180.3546,155.20276 L179.477856,154.47231 L178.698528,153.128283 L177.110647,152.251744 L176.146229,152.076436 L175.688374,147.946962 L175.288968,144.323932 L174.879821,140.73012 L171.665093,140.584031 L168.762096,140.457419 L168.450365,137.447967 L167.846385,131.838115 L168.752354,127.494375 L169.687548,123.316204 L167.232665,120.238577 L164.621916,116.956424 L163.00481,115.592918 L160.842175,111.492662 L159.78034,109.671408 L158.942562,108.989655 L158.085302,108.590342 L155.104372,108.746172 L152.064992,106.535344 L148.499567,103.944683 L144.145071,100.779402 L140.394555,98.7049257 L138.90409,98.2471773 L135.49453,98.0913481 L135.095124,97.6920357 L134.734685,96.5525344 L134.608044,95.286422 L135.49453,93.3775139 L135.445822,92.1795768 L132.698691,88.1280168 L131.860913,86.939819 L129.844402,86.462592 L130.107425,85.2938728 L130.01975,84.5147266 L129.669053,83.901149 L129.181973,83.5992299 L128.597477,83.5700119 L127.116753,84.0472389 L125.733446,82.2259848 L121.505592,77.015445 L120.268408,76.3823888 L120.005385,76.0220337 L120.726264,74.4247841 L121.953705,72.0483884 L122.060863,70.6751434 L121.593266,69.1655477 L119.654687,66.3021857 L119.907969,65.0945091 L120.453499,63.7017854 L120.385307,62.6596775 L121.49585,62.8155067 L122.888899,62.825246 L123.220113,61.9779246 L122.849932,58.9879513 L123.054506,57.8971467 L126.863472,52.8424361 L128.928691,51.7029349 L130.467864,50.6608269 L130.662696,49.1317526 L130.234066,48.3526065 L129.766469,47.203366 L129.571637,46.3755232 L127.467451,44.1062601 L126.688123,42.9570195 L126.493291,41.9149116 L126.697865,40.0547001 L127.292102,38.6230191 L129.785952,37.7756977 L131.169259,37.0549875 L131.2959,36.4024526 L129.250164,35.3603447 L125.129467,35.0292076 L122.187504,35.3311267 L121.19386,34.9999896 L119.537788,32.9742096 L117.910941,31.8931444 L116.420476,31.2016522 L115.066394,31.3282634 L114.199391,31.0555623 L113.907143,30.1790229 L111.130787,23.507584 L110.400167,22.5920873 L109.44549,22.3680828 L108.675904,22.3291255 L108.101149,21.8713772 L107.43872,20.9461411 L106.902932,19.7384646 L106.678876,18.1606937 L106.600943,16.7971879 L106.230762,15.9206485 L105.441692,15.0538485 L104.409083,14.4207922 L103.473889,13.6806034 L101.282029,7.8175287 L100.502701,6.2494971 L100.473476,6.08392855 L99.8013055,5.57748356 L98.6712799,5.39243635 L97.5315126,5.33400039 L96.8593422,5.73331279 L95.7293165,6.78516007 L94.180402,7.94413995 L92.9334772,8.99598724 L92.2320819,9.72643674 L91.5696531,9.60956482 L90.9948986,8.97650858 L90.6052346,8.09022985 L90.3227282,4.74964079 L89.9038394,3.6977935 L89.1732193,2.967344 L88.3744081,2.54855295 L87.4586976,2.31480911 L86.5332456,2.29533045 L85.3350287,3.26926313 L83.5912822,4.2821531 L80.7077685,4.20423849 L78.7497068,4.00945196 L77.7852883,3.82440475 L73.8594233,2.26611247 L73.0703536,2.22715517 L71.599372,1.59409893 L69.8751087,1.09739327 L67.1961685,2.04210796 L65.9589852,1.81810344 L64.1665307,1 L63.5917763,1.22400451 L61.9844122,3.71727215 L59.0619321,6.38584768 L57.3766352,6.83385671 L57.40586,7.13577583 L57.3376688,7.89544332 L55.5549559,10.0965312 L53.1292973,13.0962438 L51.3660676,14.9856732 L48.3753963,18.1606937 L45.9594793,18.8424466 L41.8777487,19.9916871 L40.8743638,21.1019703 L40.017103,22.9037458 L39.6566638,25.3580561 L39.6371806,26.8968697 L39.8320126,29.7699711 L41.1276454,32.7404658 L42.3648287,35.5940885 L42.6863015,37.4835179 L42.7837175,39.3437293 L42.0725807,41.3305519 L41.3517023,44.0478241 L41.088679,47.115712 L41.3711855,52.8619148 L41.8582655,57.7413175 L41.8485239,58.5399423 L40.455475,61.9876639 L38.8286277,66.0002665 L37.9713669,66.9255026 L33.626613,68.1234398 L29.0480608,71.0647164 L23.9142373,74.3468695 L19.2480106,77.3173642 L14.3479855,80.4436881 L9.25312846,83.6771445 L5.60002826,85.985365 L0.719486384,89.0727315 L2.44374968,93.8839589 L4.12904658,98.5880537 L5.88253467,103.447978 L7.57757317,108.171551 L6.22349069,108.61956 L7.62628117,112.23285 L9.37976927,111.687448 L11.3086062,111.249178 L12.3412158,113.576878 L9.8668493,116.157799 L14.0070295,116.86877 L20.2513955,117.940096 L26.2717046,118.972465 L32.6329698,120.180141 L34.7274139,121.173552 L41.088679,124.806321 L45.2191177,127.163238 L50.0509515,129.929207 L56.1004855,133.376929 L60.2504073,135.743585 L65.5693212,138.772516 L69.8166591,142.229977 L75.1940226,146.622413 L81.1169157,151.433641 L85.9682328,155.183281 L92.6412291,160.345124 L99.2362927,165.429053 L105.685232,170.415588 L110.858022,174.408712 L117.394636,179.463423 L117.891458,179.64847 L124.106599,180.22309 L132.474634,180.992497 L140.881635,181.771643 L148.470342,182.472875 L151.646104,181.761904 L154.315302,178.216789 L155.542744,176.307881 L157.676154,172.188146 L158.689281,169.256608 L159.624474,165.993934 L160.462252,163.461709 L160.637601,162.994221 L161.183131,162.137161 L162.478763,161.260621 L164.388117,160.432778 L167.739228,160.072423 L170.116178,160.052945 L170.651966,160.091902 L172.191139,160.500954 L176.535893,162.536473 L176.545635,161.913156 L178.143257,161.221664 L179.419407,161.270361 L183.530362,163.101354 L185.410491,163.490927 L187.056822,162.974743 L185.712481,162.078725 L185.712481,162.078725 Z" id="Stroke-147" sketch:type="MSShapeGroup"></path>
        </g>
    </g>
</svg>