<?xml version="1.0" encoding="UTF-8" standalone="no"?>
<svg width="100px" height="113px" viewBox="0 0 100 113" version="1.1" xmlns="http://www.w3.org/2000/svg" xmlns:xlink="http://www.w3.org/1999/xlink" xmlns:sketch="http://www.bohemiancoding.com/sketch/ns">
    <!-- Generator: Sketch 3.4.4 (17249) - http://www.bohemiancoding.com/sketch -->
    <title>sweden</title>
    <desc>Created with Sketch.</desc>
    <defs></defs>
    <g id="Assets" stroke="none" stroke-width="1" fill="none" fill-rule="evenodd" sketch:type="MSPage">
        <g id="sweden" sketch:type="MSArtboardGroup" stroke="#FF6A00" fill="#FFFFFF" stroke-linecap="round" stroke-linejoin="round">
            <path d="M86.495178,25.7476326 L86.1249043,25.2137238 L85.5480568,24.5473121 L84.616526,24.2238491 L84.4216451,24.0367861 L84.2735356,23.7561917 L84.1916856,23.3664773 L84.0201904,22.7896999 L84.0162928,22.3142483 L84.0981428,22.0336538 L84.4645189,21.8426938 L84.9673117,21.308785 L85.0413664,20.9229677 L85.0257759,20.3267045 L85.2245545,19.8122815 L85.4817973,19.5472756 L85.3882544,19.340727 L85.158295,19.0406469 L84.698376,18.6197552 L84.0123952,18.1053322 L83.494012,17.614292 L83.2406668,17.1544289 L83.0925573,16.7452287 L83.0691716,16.3711029 L83.2172811,16.1177885 L83.7785381,15.7982226 L83.8447976,15.6618226 L83.5329881,14.9564394 L83.1042501,14.8278336 L82.3948836,14.7615822 L82.0012242,14.7537879 L81.9193742,14.675845 L81.8842956,14.5355478 L81.931067,14.2471591 L82.1181527,13.9159018 L82.2818527,13.705456 L82.2857503,13.5261874 L81.9895313,12.9182328 L81.8375242,12.1699811 L81.8570123,11.5854094 L82.5507883,11.1528263 L82.5702764,10.9969406 L81.5880766,10.5253861 L80.859222,9.99927156 L80.6175697,9.6875 L79.8458413,9.64073427 L79.276789,8.74439103 L78.5401391,8.30791084 L77.8190798,7.93378497 L77.398137,7.75841346 L74.977716,7.21671037 L74.0305948,7.11538462 L72.8885926,6.79971591 L72.0233214,6.40610431 L71.2905692,6.14889277 L70.6552574,5.83712121 L69.7860885,5.54483537 L69.5210505,5.29541812 L68.566134,4.83165793 L68.1140103,4.52768065 L66.5783487,3.95480041 L66.5081915,3.72486888 L66.4770106,3.50662879 L66.4029558,3.41699446 L64.8400109,3 L64.1150539,3.02338287 L62.0259305,3.11691434 L63.0042327,3.75214889 L63.3316326,4.00546329 L63.4212779,4.37958916 L63.3199398,5.07717803 L62.9223827,5.67344114 L62.4429757,6.16058421 L61.4763663,6.63993298 L63.0393113,7.11928176 L62.0532138,7.76231061 L61.5893973,8.015625 L61.0242426,7.96885927 L59.999169,7.74672203 L57.528079,7.20891608 L56.3548959,7.00626457 L55.3142319,6.94391026 L54.7607701,6.95170455 L52.5313324,6.49184149 L52.1103896,6.54250437 L51.3347636,6.74125874 L51.2762993,7.18943036 L51.3932279,8.30791084 L51.5647231,9.16917978 L51.3035827,9.66411713 L51.0307494,10.0031687 L50.2005567,10.9151005 L48.1776928,10.2954545 L46.7979359,9.88625437 L45.9560504,10.4318546 L43.8201556,11.4373179 L42.7911843,13.4209645 L42.7327201,13.4872159 L42.0896131,13.9938447 L41.2477275,14.2276734 L40.6085181,14.3406906 L40.2577325,14.9330565 L41.1736728,15.7865312 L41.641387,16.2347028 L42.0974083,16.9595717 L42.038944,17.4233319 L41.9531964,17.7117206 L41.0333585,18.3001894 L39.0767541,19.8629443 L37.260464,21.4958479 L36.5082237,21.9635052 L36.9096784,23.3547858 L36.2977523,23.7600889 L35.034924,24.2238491 L34.3879194,24.3992206 L33.6902457,24.5044435 L31.5309652,24.6915064 L31.9597032,26.1841128 L32.1273008,26.8466273 L32.135096,27.2402389 L31.920727,27.6221591 L31.675177,28.3548223 L31.3438795,30.9853948 L31.0398653,31.2698864 L30.6306153,31.9830638 L29.2898347,33.7017045 L28.2023992,34.847465 L26.631659,36.4959572 L27.9529516,37.0181745 L29.1612133,37.4000947 L29.4223537,37.9885635 L29.613337,38.9667468 L29.5899513,39.6370557 L29.1456228,40.2411131 L28.7987348,40.6620047 L28.5531848,40.8685533 L26.8421304,40.6620047 L24.6477713,40.3969988 L24.078719,40.3969988 L22.8080955,40.5879589 L21.6660933,40.9776734 L21.0658601,41.3050335 L20.9021601,41.4336393 L20.1460222,42.1857882 L18.7974463,43.5186116 L18.0491036,44.0992861 L18.2751654,44.905995 L17.0318252,46.4609557 L17.8698131,48.0354021 L17.9048917,48.086065 L18.3492202,48.7251967 L17.8931988,49.1343969 L17.7022155,49.3565341 L17.7723727,50.0853001 L17.9009941,50.8998033 L17.799656,51.3791521 L17.7606798,51.9130609 L18.9143748,54.3059076 L18.9065796,54.8709936 L18.8520129,55.233428 L18.5168178,56.7299315 L18.064694,58.7408581 L18.8948867,59.2708698 L20.0758651,59.9022072 L20.7423578,60.1516244 L21.7284552,60.9076705 L22.4845932,61.6442308 L22.3871527,62.1313738 L22.1805789,62.6730769 L21.8687695,63.0510999 L21.5803457,63.5694202 L21.4556219,63.9513403 L21.3153077,64.0565632 L20.0057079,64.0955347 L19.3158295,64.2436262 L18.9572486,64.4034091 L19.0897676,65.2763695 L19.9004722,66.881993 L20.5747602,68.0238564 L20.7969244,68.7799024 L20.5864531,69.5437427 L20.3642888,69.9334572 L20.3642888,70.4634688 L20.2005888,71.5118007 L19.6900009,72.0457095 L19.0196105,72.626384 L18.2712678,73.0589671 L17.6749322,73.1797786 L17.1604466,73.2304414 L16.8174562,73.4486815 L16.5095443,74.0956075 L16.2250182,74.7776078 L15.2817946,75.6154939 L15.3090779,75.9077797 L15.675454,76.9015516 L16.0184444,78.0356206 L15.7378159,79.0956439 L15.5000612,80.2102273 L15.0713232,80.9506847 L14.4593971,81.2156906 L14.0072734,81.0831876 L13.4927878,80.0660329 L12.9159403,79.6607299 L12.3001166,79.7308785 L12.1208262,79.9919872 L12,80.4479531 L12.1364166,80.9779647 L12.378069,81.4300335 L12.479407,82.9304341 L12.7795237,84.571132 L12.6586975,84.9881265 L12.6353118,85.4285038 L13.1420022,85.3388695 L13.7773139,85.6662296 L13.8942425,87.4511218 L14.521759,88.3981279 L15.4844707,88.6241623 L15.6559659,90.3116259 L15.6949421,90.6896489 L16.5991896,90.9975233 L16.6420634,91.5392264 L16.8447395,92.2718896 L17.1292656,93.0513185 L17.7061132,92.8798441 L18.3414249,94.6647363 L20.0641722,97.2680288 L21.0268839,97.9422348 L21.9545171,99.2477783 L22.4378217,99.3568983 L23.0107716,99.6141098 L23.2485263,100.448099 L22.8626621,100.962522 L22.3286884,100.935242 L21.5881409,101.056053 L21.8142028,101.515916 L22.1416027,101.819894 L22.527467,102.497997 L22.2195551,102.677265 L21.9272337,102.731825 L20.6527126,102.260271 L20.4266507,102.279757 L20.7462554,102.646088 L21.210072,103.526843 L22.7769145,105.61961 L23.466793,106.235358 L23.6772643,106.71081 L23.7084453,107.155084 L23.6226977,107.821496 L23.4745882,108.468422 L23.4940763,108.893211 L23.1510859,109.466091 L25.9456782,110 L29.0364895,109.325794 L30.7904177,109.621977 L31.3906509,109.586903 L32.4430078,108.515188 L32.0064746,107.622742 L31.5192723,106.866696 L31.5777366,106.021015 L31.8661603,105.568947 L32.7431244,104.840181 L33.1913505,104.536203 L33.7253242,104.255609 L34.3489432,104.489438 L34.9764597,104.380318 L34.6958312,103.55802 L35.1245692,103.331986 L36.831726,103.246249 L38.5895519,103.42162 L39.7432469,103.156614 L40.487692,103.137128 L41.099618,103.3125 L41.773906,103.632066 L42.3585487,103.28522 L42.8262629,102.833151 L43.7266127,100.565013 L44.1202722,99.8401442 L44.9192839,98.8697552 L45.266172,98.0630463 L45.5429028,97.1004516 L45.9443575,95.9546911 L45.7923504,95.3545309 L45.6013671,94.9843022 L45.5545957,94.3529647 L46.4783312,93.0162442 L46.5913622,92.4472611 L46.2678598,91.8977637 L46.1158527,91.3015006 L46.0963646,90.3389059 L45.8858933,89.9258086 L46.1158527,89.1113054 L46.7277788,89.0723339 L46.6810074,87.1081731 L47.0980525,86.6794872 L46.735574,85.9624126 L46.2912456,84.9062864 L47.359193,84.7036349 L47.9672214,84.4347319 L47.0941549,83.6903773 L46.4315598,83.573463 L45.153141,83.4682401 L44.6152697,83.5578744 L44.1553507,83.3435315 L43.5044485,83.27728 L44.1280674,83.0590399 L46.1431361,83.1603657 L48.2478499,83.1369828 L49.0039879,82.6810169 L50.5006733,82.1198281 L51.1476779,81.496285 L52.4494824,81.0325248 L53.0224323,80.6389132 L53.4199894,80.7246503 L54.3047487,80.338833 L55.0452962,79.8594843 L56.1872984,79.4814612 L56.4016674,79.2982955 L56.6978863,78.9163753 L56.9044601,78.0317235 L57.426741,78.0200321 L58.1478003,77.7355405 L57.7619361,77.1977346 L57.4423314,77.0886145 L57.1383172,77.1782488 L56.7602482,77.4042832 L56.3860769,77.3497232 L55.9846222,77.4159747 L55.6299389,77.7004662 L55.1544295,77.8251748 L54.2073083,77.7199519 L54.098175,77.478329 L55.2986414,76.9093459 L55.6338366,76.9911859 L55.9924174,76.8508887 L56.3548959,76.5391171 L56.7485554,76.4299971 L57.7970147,75.8298368 L58.1633908,75.5492424 L58.6233098,75.0971737 L59.6795643,74.4931163 L60.1277904,74.298259 L60.2174356,73.7370702 L59.815981,72.8212413 L59.4963763,72.5211611 L59.2820073,72.1587267 L58.8532692,71.7300408 L57.6956766,71.4143721 L57.2786315,71.1454691 L57.3721743,70.3465545 L56.3704864,69.6801428 L55.4428533,69.4852855 L54.8854938,69.118954 L53.9188845,68.2966565 L53.5486108,67.6731133 L53.0380228,67.7510562 L52.2662944,68.0745192 L51.7712968,68.1095935 L51.5647231,67.7081876 L51.3191731,67.3730332 L51.085316,67.2561189 L50.4850828,67.260016 L49.8926448,67.2678103 L49.206664,66.7962558 L49.2456402,66.3013185 L49.3352854,65.911604 L48.8207998,64.804815 L48.8675712,64.535912 L48.645407,63.2654429 L48.5713522,62.4548368 L48.4661166,62.2249053 L48.6687927,61.9598995 L48.5206832,61.6013622 L48.2712356,61.4104021 L48.4037547,60.8063447 L48.2790309,60.4400131 L48.1582047,59.8827214 L48.6415094,59.2474869 L48.4972975,58.7096809 L49.3469783,58.9707896 L50.1381948,59.0253497 L49.8263853,58.5849723 L49.6977639,58.2576122 L49.5223711,57.5950976 L49.7094568,56.8117716 L49.8965425,56.3674971 L50.2239424,55.2412223 L50.5201614,54.882685 L50.9372065,54.719005 L50.3369733,54.477382 L49.6704806,53.9239875 L49.3002069,53.2030157 L49.3157973,52.9224213 L49.4911902,52.563884 L50.0914234,52.7665355 L50.47339,53.0120557 L50.9294113,53.0120557 L51.3347636,52.6223412 L52.0324373,52.6067526 L52.6755443,52.0182838 L53.209518,51.8429123 L53.0146371,51.6441579 L52.5508205,51.5311407 L52.3793253,51.3830492 L52.5975919,51.2232663 L52.78078,50.9037005 L52.5079467,50.3970717 L52.2662944,50.0502258 L52.1532634,49.7150714 L52.3091682,49.6098485 L52.5936943,50.0229458 L53.4433751,50.0073572 L53.3615251,50.1944202 L53.3498322,50.3619974 L53.9227821,50.3697917 L54.1800249,50.190523 L54.363213,49.9060315 L55.6260413,49.5396999 L55.7273794,49.2863855 L55.7390722,49.0525568 L55.813127,48.814831 L54.6828177,48.7563738 L54.8543129,48.4796766 L55.2323819,48.436808 L55.9534413,48.2341565 L56.2028888,47.7470134 L56.3509983,47.3417104 L56.7134768,47.357299 L57.2513481,47.1858246 L57.609929,47.1936189 L57.8398885,47.1234703 L57.7775266,46.9870702 L57.426741,46.8779502 L57.5631576,46.7259615 L58.8688597,46.8818473 L60.0147595,46.0283727 L60.2797975,45.3970353 L60.6500713,45.0190122 L61.5114449,45.4321096 L61.4685711,45.1515152 L61.5114449,44.7734921 L62.0454186,44.9449665 L62.4507709,45.1710009 L62.8405327,45.1281323 L63.1523422,44.5474578 L63.8967873,43.9862689 L65.5922512,43.5848631 L66.5432701,43.1172057 L67.0031891,42.7235941 L68.2971983,42.3182911 L68.7727078,41.9987252 L70.097898,39.6019814 L71.4191906,38.6705638 L72.6001689,38.0509178 L72.7482784,37.7703234 L72.8652069,37.407889 L72.0739904,36.7843459 L71.6569453,36.1296256 L71.2905692,35.3969624 L70.822855,35.0189394 L70.413605,34.7539336 L70.7059264,34.2317162 L71.2399001,33.740676 L71.9570619,33.1911786 L72.7560736,32.3260125 L72.7716641,32.0610067 L72.5417046,31.7063666 L72.2844618,31.4140807 L71.8596214,31.125692 L71.680331,30.8645833 L71.8908024,30.8373033 L72.6313498,31.3439321 L72.8730022,31.2893721 L72.8691046,31.0009834 L72.7599712,30.8684805 L72.455957,30.7593604 L72.3117451,30.5489146 L72.3468237,30.3345717 L72.5222165,30.1708916 L73.1965045,30.2059659 L74.3385066,30.0500801 L74.5255923,29.9487544 L74.7165756,29.69544 L74.4203566,29.4070513 L74.5022066,29.2238855 L75.4688159,29.2394741 L75.8079087,29.0679997 L75.7104683,28.9354968 L75.488304,28.834171 L75.4103517,28.6276224 L76.3964491,28.7289481 L76.4510157,28.5457823 L76.42763,27.7585591 L76.4821967,27.5637019 L76.7355419,27.2558275 L76.8758561,26.8661131 L77.0629418,26.7180216 L77.4410108,26.7881702 L77.9048274,27.2324446 L78.3686439,27.1389132 L79.0546248,26.6517701 L80.1186745,27.2909018 L81.2139053,27.6806163 L81.5062266,27.5675991 L81.8648075,27.294799 L82.9951168,27.1545017 L83.9968047,27.1467075 L84.5541641,26.971336 L85.7429377,27.322079 L87.2591112,27.1467075 L86.495178,25.7476326 L86.495178,25.7476326 Z M58.069848,75.970134 L57.7814242,76.1455055 L57.691779,76.4689685 L57.6333147,76.5313228 L57.8087076,76.8547858 L57.9490218,76.58978 L58.1127218,76.4144085 L58.5570503,76.157197 L58.5531526,76.0753569 L58.069848,75.970134 L58.069848,75.970134 Z M57.426741,79.5204327 L57.2981196,79.4931527 L56.8888696,79.6451413 L56.7719411,79.8049242 L56.619934,80.175153 L56.7602482,80.202433 L57.0291839,80.1244901 L57.426741,79.5204327 L57.426741,79.5204327 Z M61.9674662,88.5579108 L61.398414,89.1268939 L61.7180187,89.4971227 L62.0454186,89.5360941 L62.1272686,89.0333625 L63.2030112,88.7060023 L62.8834065,88.589088 L61.9674662,88.5579108 L61.9674662,88.5579108 Z M60.5292451,89.0918196 L60.1667666,89.2126311 L59.9679881,89.7543342 L59.4340144,89.5088141 L58.2920122,89.7777171 L57.4968981,90.370083 L56.7719411,91.1962777 L56.3003293,91.5509178 L55.8910794,91.9912952 L55.8871817,92.8642555 L56.078165,93.7567016 L55.8092294,94.2984047 L56.2028888,94.7855478 L56.5224935,95.4246795 L57.0213887,95.8299825 L56.5536745,96.4223485 L56.2067864,97.1511145 L56.8498935,97.0614802 L57.4072529,96.6834572 L57.6605981,95.7949082 L58.1984694,95.1830565 L58.5687431,94.9063593 L59.5665334,94.5361305 L59.8003905,93.8814103 L60.0498381,93.577433 L60.4084189,93.3708843 L60.805976,93.2734557 L60.0342476,92.5875583 L60.081019,90.7831804 L60.4707808,90.5922203 L60.887826,90.4947917 L61.1606593,89.9258086 L61.6673496,89.7309513 L60.887826,89.2165283 L60.5292451,89.0918196 L60.5292451,89.0918196 Z M49.3937497,93.8112617 L48.9883974,93.7060388 L48.8130046,93.928176 L48.614226,94.4737762 L48.2634404,95.0895251 L48.0607643,95.7715253 L47.2578549,97.3031031 L46.6498264,97.5057547 L45.3636124,100.011619 L45.2739672,100.70531 L45.3714076,102.116077 L45.5857767,102.661677 L45.8742004,102.692854 L46.1860099,102.279757 L47.6047429,98.0903263 L47.9750167,97.8019376 L48.2127714,96.625 L49.2105616,94.8167249 L49.2339474,94.6452506 L49.1676878,94.2282561 L49.5769378,93.9125874 L49.3937497,93.8112617 L49.3937497,93.8112617 Z" id="Stroke-31" sketch:type="MSShapeGroup"></path>
        </g>
    </g>
</svg>