<?xml version="1.0" encoding="UTF-8" standalone="no"?>
<svg width="82px" height="50px" viewBox="0 0 82 50" version="1.1" xmlns="http://www.w3.org/2000/svg" xmlns:xlink="http://www.w3.org/1999/xlink" xmlns:sketch="http://www.bohemiancoding.com/sketch/ns">
    <!-- Generator: Sketch 3.4.4 (17249) - http://www.bohemiancoding.com/sketch -->
    <title>switzerland</title>
    <desc>Created with Sketch.</desc>
    <defs></defs>
    <g id="Assets" stroke="none" stroke-width="1" fill="none" fill-rule="evenodd" sketch:type="MSPage">
        <g id="switzerland" sketch:type="MSArtboardGroup" stroke="#FF6A00" fill="#FFFFFF" stroke-linecap="round" stroke-linejoin="round">
            <path d="M78.6663963,23.3715208 L78.6956211,22.6410713 L78.0234507,21.2580869 L76.9129082,20.8198172 L74.0196528,23.4299568 L73.2305832,23.6539613 L70.9023407,22.9429905 L68.8858293,21.8229679 L68.6715141,21.0146038 L68.3402997,20.3425902 L66.6355196,19.709534 L64.5118507,19.2810036 L63.8396803,19.2810036 L62.5148226,19.1641317 L62.2712826,19.173871 L62.1349002,18.4239429 L62.2323162,16.8266933 L62.9824194,14.7424774 L64.3852099,12.1712951 L64.6774579,10.5643062 L63.4694994,9.62933084 L62.9629362,9.34689037 L60.0209729,7.75938011 L57.2056503,6.24004515 L56.2704566,6.24004515 L52.09131,6.54196427 L51.9744108,6.4056137 L51.2535324,5.53881362 L50.6105867,5.25637315 L50.2209227,5.40246305 L49.9578995,5.65568554 L49.5097859,5.60698891 L47.6588818,4.20452586 L46.8990369,4 L45.8274609,4.18504721 L44.5707944,4.94471469 L44.0057816,5.86995073 L44.1713888,6.4056137 L44.8143344,6.63935754 L46.5191145,6.48352831 L46.7723961,6.63935754 L46.8211041,6.93153734 L46.6360137,7.22371714 L45.2429648,7.46720031 L44.8338176,7.81781607 L44.434412,7.90547001 L44.1713888,7.96390598 L42.7004071,7.59381156 L40.508547,7.59381156 L38.7258341,8.24634645 L35.9007699,8.50930827 L32.0236129,8.38269702 L30.630564,7.89573069 L28.5653447,8.85992403 L28.0880063,9.70724546 L27.2599702,10.8175287 L25.9545957,11.2850164 L24.6297381,11.4408456 L23.5776452,11.2947557 L22.9834076,10.8467467 L23.022374,10.437695 L22.4573611,10.0773399 L21.0643123,10.0968185 L19.6030722,10.856486 L18.4243385,12.1128592 L18.7652945,12.8140907 L19.827129,12.9991379 L20.0998938,13.2815784 L20.0901522,13.6419335 L19.7102298,14.0802032 L19.242633,14.820392 L16.9630984,17.0312192 L14.6640807,19.261525 L14.2938999,19.9335385 L13.5632798,20.4107655 L10.6700245,21.5989634 L10.3582933,22.0761904 L10.1537197,24.063013 L9.79328044,25.6992199 L7.63064512,27.2380336 L5.46800979,28.7671078 L4.91273856,29.7020832 L4.50359134,30.7831485 L3.8119377,32.0103036 L3.66581369,32.6530992 L4.70816495,33.7049465 L4.56204094,34.5717466 L4.19186012,35.8086411 L3.14950886,36.6851805 L2.0097416,37.1818861 L2,38.5356525 L2.59423763,38.7206998 L3.96780331,38.6233065 L5.91612342,37.6396345 L7.20201469,36.3832613 L6.49087785,35.1950635 L6.40320345,34.9613196 L6.58829386,34.6788792 L8.10798354,33.3835487 L9.95888765,32.6044026 L12.5014454,32.4583127 L15.5700496,32.916061 L15.8720392,33.1108476 L15.706432,33.899733 L15.9694552,35.0781916 L16.5052432,35.896295 L15.6966904,38.2337334 L16.2519616,38.9641829 L17.1287056,39.8407223 L17.7911345,40.6393471 L18.7360697,41.379536 L19.5738474,42.6164304 L19.8563538,43.3079226 L20.4408498,43.7754103 L21.6780331,44.272116 L25.0973349,43.6001024 L27.2307454,42.9183496 L28.7309519,42.1976394 L29.656404,42.3242506 L32.9782897,43.3955766 L34.0888322,42.8501743 L36.5242323,41.3990146 L36.8944132,40.6393471 L38.8232501,38.3213874 L38.8719581,37.7565064 L38.1121132,36.3053467 L38.3556532,35.9936883 L40.703379,34.493832 L41.8626294,33.1790229 L43.1095543,32.2927441 L43.9862984,32.2732655 L44.2298384,32.5751846 L44.3272544,33.1887622 L44.2200968,35.7404658 L44.5513112,36.5196119 L46.3535073,38.3506053 L47.6491402,39.3927133 L50.6690363,40.1036842 L50.7956771,40.4445606 L49.9481579,41.8178057 L51.7698372,43.4637519 L52.0815684,44.6616891 L52.9193461,45.3434419 L54.1273045,45.0123048 L54.5267101,44.3792486 L54.0688549,43.259226 L53.7278989,42.1002461 L53.8058317,41.4184933 L54.1467877,40.6490864 L54.9845654,39.5680212 L57.2738415,37.0844929 L58.1018775,35.6528118 L58.2674848,33.4322453 L58.286968,31.6499486 L59.0468128,31.2214182 L60.6639185,31.542816 L61.1509985,31.5038587 L61.3653137,32.5946632 L62.0374842,34.3380027 L62.846037,35.2437601 L63.7130395,35.4580253 L64.7359075,35.4580253 L67.2784653,34.3964387 L68.9345374,33.9386903 L69.869731,34.0653016 L70.4152606,34.7860118 L71.5939943,36.6851805 L72.2661647,36.8994457 L73.0844592,36.6851805 L73.3767072,36.3637827 L73.113684,35.6333332 L72.772728,34.0360836 L72.3051311,32.8089284 L71.6914103,32.2343082 L71.5745111,31.48438 L71.9641751,30.1306136 L72.4122887,29.0008517 L73.2792912,28.6989326 L74.2631929,28.5528427 L75.5685673,29.7507798 L77.1174818,30.1306136 L78.2669907,30.0624383 L78.4715643,29.3709461 L78.4033731,28.6015393 L77.721461,27.6178673 L77.8578435,26.1374896 L78.6663963,23.3715208 L78.6663963,23.3715208 Z" id="Stroke-30" sketch:type="MSShapeGroup"></path>
        </g>
    </g>
</svg>