<?xml version="1.0" encoding="UTF-8" standalone="no"?>
<svg width="100px" height="39px" viewBox="0 0 100 39" version="1.1" xmlns="http://www.w3.org/2000/svg" xmlns:xlink="http://www.w3.org/1999/xlink" xmlns:sketch="http://www.bohemiancoding.com/sketch/ns">
    <!-- Generator: Sketch 3.4.2 (15855) - http://www.bohemiancoding.com/sketch -->
    <title>syria</title>
    <desc>Created with Sketch.</desc>
    <defs></defs>
    <g id="Assets" stroke="none" stroke-width="1" fill="none" fill-rule="evenodd" sketch:type="MSPage">
        <g id="syria" sketch:type="MSArtboardGroup">
            <path d="M3.34101382,9.10589542 L4.43969877,8.99351164 L5.52714398,8.98227326 L5.19557154,9.49080985 L3.84680229,10.1033014 L3.40002248,10.4432623 L2.91390356,10.909655 L2.93357311,11.3226654 L2.98977183,11.6064344 L2.84084523,11.9857297 L2.74811734,12.3959304 L3.09092953,12.2666891 L3.37754299,12.0981134 L4.02663819,11.2411872 L5.47937507,9.77457888 L6.4825222,9.3671877 L7.87344049,8.60578762 L8.68270203,7.6645735 L8.97493537,6.84698153 L10.2169271,6.59973722 L11.1301562,6.74021694 L11.9141284,6.30472981 L12.3440486,6.18391725 L12.9706643,6.24291873 L15.4855569,6.83855274 L16.3622569,6.63064276 L16.5392829,6.30472981 L16.6825896,5.81866998 L16.7668877,5.27079908 L16.1964707,5.15560571 L13.0465325,3.82104837 L12.2513207,3.28441584 L11.4223896,2.21676997 L11.0430482,1.44975071 L11.1273463,0.755780891 L10.4361021,0.649016304 L10.2000674,0.679921842 L10.0595706,0.831639939 L9.73923795,0.800734401 L9.34584691,0.800734401 L8.94683601,0.974929253 L8.72485107,1.04797871 L8.41013825,0.890641422 L7.80881196,0.413010375 L7.44071035,0.0814782373 L7.17938631,0 L6.92930201,0.0983358036 L6.01888277,0.207909985 L5.81656738,0.401771998 L5.40912667,0.615301171 L4.98763628,0.716446569 L4.38069012,0.789496024 L4.05754749,0.78106724 L3.8861414,0.882212638 L3.75688434,1.19407762 L3.6753962,1.5003234 L3.59390806,1.62394556 L2.83803529,1.77566365 L2.68348882,1.94985851 L2.64976959,2.12124376 L2.67505901,2.29543862 L3.13869844,2.41625118 L3.41407216,2.61854197 L3.59390806,2.80116561 L3.8552321,2.96131249 L4.04349781,2.99783721 L4.22614364,3.54289853 L4.34978082,4.21720118 L4.254243,4.509399 L3.9254805,4.57682926 L2.92514331,5.21460719 L2.93919299,5.80181241 L2.97291222,6.08558145 L3.00944138,6.28506265 L3.13026863,6.45644791 L3.14712825,6.69807303 L3.04597055,6.9621749 L2.61886029,7.40047162 L2.32381702,7.74886133 L2.00067438,8.22087318 L1.80397887,8.27987467 L1.65505226,8.3641625 L1.81802855,8.63107397 L2.03720355,9.07498988 L2.64133978,9.03284596 L3.34101382,9.10589542 L3.34101382,9.10589542 Z M99.8426436,29.9755625 L100,29.6384112 L99.9719006,29.5063603 L99.5110711,29.0793019 L98.8844554,28.6550532 L98.7186692,28.5820037 L98.6596606,28.1268494 L98.6371811,27.7840789 L98.5472631,27.4750235 L98.4180061,27.2980191 L98.3955266,27.160349 L98.5866022,26.8260072 L98.4095763,26.6068589 L97.499157,26.0674167 L97.147915,25.7976957 L96.5578285,25.7443134 L96.4763403,25.5644994 L96.5184894,25.1880137 L96.664606,24.7328594 L96.9259301,24.2833243 L96.9961785,24.0473184 L97.0692368,23.6455464 L97.0748567,23.3589678 L97.3783298,22.9600054 L97.36709,22.8532408 L97.2490727,22.7099515 L96.9568394,22.6284732 L96.6617961,22.5975677 L96.5437788,22.5245182 L96.4791503,22.3081795 L96.403282,21.4343956 L96.2459256,20.9090014 L96.0773294,20.5297062 L96.0408003,19.6727799 L95.8160054,19.5013947 L95.4422839,19.0518596 L95.2596381,18.6725643 L95.3130269,18.529275 L95.3467461,18.2820307 L95.349556,17.9533082 L95.3045971,17.7229214 L94.9870743,17.4981539 L94.73699,17.2593383 L94.6779813,16.9980461 L94.5515342,16.6777523 L94.3969877,16.4248888 L94.3211195,16.2591227 L94.4138474,16.1607869 L94.8128583,16.0821183 L95.4169945,16.1355006 L95.9031134,16.1411198 L96.1588176,15.9781633 L96.2908846,14.4441248 L96.5465887,14.0395432 L96.8753512,13.8063468 L97.6537035,14.3485985 L97.9740362,14.539651 L98.1538721,14.5452702 L97.9515567,14.3289314 L97.8560189,14.213738 L97.6424638,13.944017 L96.6365067,13.0618043 L95.7204676,12.3875017 L95.1163313,12.6150788 L94.5543442,12.6431748 L93.6916938,12.7780353 L93.3601214,12.7218434 L92.5508598,12.4296456 L91.8624255,12.0812559 L91.929864,11.935157 L92.0506912,11.831202 L91.8287063,11.3788573 L91.3706867,10.6511723 L91.3791166,10.4235952 L91.2217601,10.1089206 L91.0644037,9.87291469 L91.4858941,9.30537662 L91.6516803,8.85022233 L91.6376307,8.40630641 L91.4409351,7.94834253 L90.9913454,7.11670259 L90.7553108,6.87507747 L90.3450601,6.65030992 L89.9769585,6.28225306 L89.8589412,6.02377037 L89.8533213,5.908577 L89.7858829,5.72595337 L89.6088569,5.59671202 L89.3784422,5.51242419 L88.9766213,5.54332973 L88.5916601,5.4590419 L88.290997,5.22865516 L88.2066989,5.0572699 L88.3387659,4.91398059 L88.2095088,4.79597762 L87.7037204,4.51782778 L86.84107,3.81823878 L86.3886703,3.66371108 L86.1526357,3.22822395 L85.9699899,3.13550734 L85.6018883,3.09336342 L85.2253569,3.13550734 L85.1466787,3.18327044 L85.0399011,3.2535103 L84.8179162,3.79857161 L84.6324604,3.98400484 L84.1041924,3.89690742 L83.6574126,3.77047567 L83.2977408,3.69742622 L82.6177363,3.65247271 L81.8450039,3.64404392 L81.3813645,4.02895835 L81.1509498,3.98119525 L80.7294594,3.79014283 L80.0747443,3.63280555 L79.7206924,3.50918339 L79.3132517,4.08234065 L77.7705968,5.07693706 L77.1805103,5.38037326 L76.489266,5.51242419 L75.8851298,6.02096078 L73.8563561,6.91722139 L73.1763516,7.03241476 L72.4963471,6.82169518 L72.0523772,6.88631585 L71.5156794,6.78798005 L69.4812858,6.02657997 L66.6320108,6.57164128 L65.1933236,7.07174908 L64.3081938,7.14479853 L61.8579296,6.66997708 L61.0683376,6.19515563 L59.343037,5.97881686 L57.4407104,5.54894892 L56.9995504,4.98983964 L55.8502866,4.45039751 L55.1955715,4.51782778 L54.911768,4.67797466 L54.563336,5.07131787 L54.0238283,4.99545883 L53.3382039,4.61897318 L52.7734068,4.06548308 L51.9500955,2.50053901 L51.5623244,2.36567848 L51.2616612,2.31229618 L49.4829718,2.79835601 L48.1032932,2.21957957 L47.6087445,1.81780757 L47.1029561,1.23060234 L47.018658,0.828830345 L47.1338653,0.629349143 L47.1788243,0.398962403 L46.403282,0.182623635 L45.1809599,0.828830345 L42.3597842,0.786686429 L38.2235585,0.46077348 L37.7430595,0.539442123 L36.1048668,1.22498315 L34.1098123,1.74475812 L32.9633584,2.21396038 L31.9321119,3.07088667 L28.9001911,4.71730898 L28.4253119,5.71190539 L27.9869619,6.02096078 L25.7390132,6.1586309 L23.3168484,5.47308987 L21.1812971,5.75404931 L18.112847,5.28203745 L17.2333371,5.32418137 L16.9804428,5.59390243 L16.8820951,6.0574855 L16.8146566,6.63345235 L17.0225919,6.90598301 L17.1968079,7.0633203 L17.98359,7.61961999 L18.5343374,7.85562591 L20.7766663,8.15625251 L21.0239407,8.15625251 L21.0127009,8.29392264 L19.3126897,8.47654627 L17.0338316,8.84179354 L16.5533326,8.95698691 L15.7328313,9.55262093 L16.0194448,9.74086375 L16.3004384,9.87291469 L16.710689,9.9656313 L17.1462291,10.2325428 L16.9186243,10.4460719 L15.5501855,10.4376432 L15.0022479,10.5275502 L13.2516579,10.3645937 L11.6022255,10.5696941 L11.4251995,10.5022638 L11.5825559,10.1623029 L11.7230527,9.96844089 L11.6865235,9.82796118 L11.0908171,9.68186227 L10.5541194,9.70433902 L10.3770934,9.87853387 L11.0149489,10.493835 L10.7283354,10.6848875 L10.4248623,10.8225576 L9.14072159,10.8787495 L8.38765876,10.5303598 L8.27807126,10.2887347 L8.1094751,10.0386808 L7.280544,10.0583479 L6.74665618,10.403928 L5.34730808,10.3814513 L4.09126672,11.6401496 L3.33258402,12.710605 L2.67224907,12.4240264 L2.5570417,13.1545209 L2.6666292,14.5059358 L2.42778465,15.0566163 L2.41935484,15.3572429 L2.5261324,15.6943943 L3.73721479,15.5876297 L4.40597954,15.3572429 L6.14251995,15.0931411 L6.51905137,15.1774289 L6.5921097,15.3797197 L6.13128021,15.9978305 L5.63673148,16.4951287 L5.50747443,16.7929457 L5.71259975,16.9924269 L6.45723278,17.905545 L6.46004271,18.2792211 L6.26615713,18.5489422 L6.31954591,18.8832839 L6.59772957,19.1220994 L6.87310329,19.0518596 L7.13442734,19.1473858 L7.37046195,19.3524862 L6.87591323,20.0548848 L6.28020681,20.3049387 L6.15656963,20.4735143 L6.29706643,20.7853793 L6.35045521,20.9989085 L6.59491964,21.4372052 L6.97988086,21.9176458 L7.31988311,22.131175 L8.21344273,22.1058887 L7.99145779,22.3362754 L6.78880522,22.6088061 L6.31111611,22.5104703 L6.08070136,22.3194178 L5.92615488,22.4008961 L5.83904687,22.844812 L5.66202091,22.7380474 L5.39788693,22.3194178 L5.45127571,21.8839307 L5.30234911,21.4400148 L4.90052827,20.9792413 L4.52399685,20.9061919 L4.20366416,21.0129564 L4.19804428,21.4091093 L4.54085647,22.1789381 L4.49870743,22.6397116 L4.12217601,22.6256636 L3.8861414,23.2156784 L4.11374621,23.4376364 L4.6139148,23.6146408 L5.13375295,23.946173 L5.4344161,24.0304608 L5.62549174,23.856266 L5.93458469,23.7185958 L6.59772957,24.1007007 L6.99674047,24.631714 L7.33112285,24.5811413 L8.46633697,25.0643916 L8.85129819,25.1149643 L9.00303473,25.7302654 L8.90749691,26.730481 L8.16286389,26.9692965 L8.12352478,27.160349 L8.55906485,27.5059291 L8.89063729,28.2223756 L9.0086546,28.8770111 L9.38518602,29.1354938 L9.8375857,29.1860665 L9.97527256,29.4024053 L10.615938,29.7704622 L10.7255255,30.3155235 L9.87692481,30.5796253 L9.52568281,30.5515294 L9.28121839,30.8577752 L9.38799595,31.5124107 L9.63527032,31.4786955 L9.81791615,31.2370704 L11.4757784,31.3157391 L13.8782736,31.1752593 L14.4402608,31.1780689 L14.3615826,31.3859789 L13.6590986,31.8720388 L13.290997,32.4367672 L12.9313252,32.5828661 L11.3661909,32.7261555 L10.9812296,32.9031599 L10.5316399,32.9846381 L10.4754412,33.2037865 L10.9334607,33.3807909 L11.5375969,33.442602 L12.28223,33.0464492 L13.729347,32.950923 L13.3977745,33.470698 L13.4399236,33.6982751 L13.9119928,33.6224161 L14.3334832,33.366743 L14.8448915,32.5660086 L15.7806002,32.6165813 L17.0366416,33.2740264 L17.5592896,33.4369828 L17.9695403,33.4482212 L18.3376419,33.1813097 L18.7001236,33.3217895 L18.8265708,33.6757984 L18.8855794,33.9820441 L19.1750028,34.4287697 L19.3660785,35.2154561 L19.8128583,35.6818488 L20.4872429,36.1004783 L22.2996516,36.7523042 L22.8166798,36.6792548 L24.3115657,36.1594798 L25.0590087,35.7914229 L25.3990109,35.9150451 L25.8935596,36.1988141 L26.1886029,36.0302385 L26.3656289,35.7717558 L26.4218276,34.8726856 L26.6606721,34.3922449 L26.6634821,32.6587252 L26.9557154,32.2204285 L28.5489491,32.3300026 L30.0663145,32.5013879 L30.656401,32.6334388 L32.9493088,33.8387548 L34.253119,34.3332434 L34.8572553,34.8839239 L35.7395751,36.0414768 L36.2678431,36.580919 L37.1192537,37.1091227 L38.507362,37.5249427 L39.1789367,37.1428378 L40.0584467,37.0950747 L41.8146566,36.7775906 L42.238957,36.8337825 L43.115657,36.5921573 L44.4110374,35.867282 L44.7426099,35.5778938 L46.0408003,33.8921371 L47.5103968,32.7402034 L48.0218051,32.535103 L48.5894122,32.6446772 L49.3143756,33.1166891 L50.5732269,33.6982751 L51.7309205,34.0775704 L52.4671237,33.9399002 L52.894234,33.5830817 L53.0375407,33.1251179 L53.3972125,32.8722544 L53.7372148,32.7823473 L54.2317635,32.3356218 L54.9454872,31.9338498 L55.4259863,32.3103355 L55.6845004,32.5941045 L55.7603687,33.0043053 L55.8109475,33.5437474 L55.0747443,34.4147217 L54.3666404,35.1564546 L54.0463077,35.7745654 L54.5239969,36.7382562 L54.9763965,37.7665678 L54.6869731,38.2863427 L55.0803642,38.3284867 L55.9542542,38.8285945 L56.0891312,38.8145465 L56.2858267,38.1514822 L56.5106216,37.9267147 L57.0051703,37.7300431 L57.0557491,36.6595876 L57.2777341,36.4544872 L57.5587277,36.344913 L57.9998876,36.3224363 L58.379229,36.2578156 L58.3876588,36.0695728 L57.7357536,34.8305417 L57.7582331,34.5186767 L57.9043498,33.2712168 L58.025177,32.7823473 L58.1656738,32.6250101 L58.7838597,32.6868211 L59.6605597,32.9059695 L59.9190738,33.2655976 L60.3686636,33.5830817 L60.9952793,33.5634146 L61.7258627,33.6224161 L62.2934697,33.6420832 L62.7261998,33.4201253 L63.7068675,33.0014957 L64.2014162,32.861016 L64.6425761,32.6755828 L66.053164,31.9928513 L66.6516803,32.043424 L67.0647409,32.1361406 L67.3850736,32.2429052 L68.1268967,32.7092979 L68.7478925,33.1841193 L69.1637631,33.3245991 L69.8887265,33.3133607 L70.9452624,33.4032677 L72.2322131,33.3976485 L72.9712263,33.2655976 L73.9069349,33.0324012 L75.5619872,32.473292 L77.6891087,31.3045007 L78.9507699,30.7369626 L79.5127571,30.672342 L80.2545802,30.6639132 L81.010453,30.8128217 L81.8646735,30.9195863 L82.2496347,30.9111575 L83.1488142,30.7931545 L84.3036979,30.5571486 L85.0258514,30.3632866 L85.8856918,30.0458024 L86.3858604,29.5175987 L86.5600764,29.4642164 L86.8017309,29.5597426 L86.9141284,29.5962673 L87.1782623,29.8968939 L87.5042149,30.6695324 L87.9903338,30.540291 L88.8333146,29.7704622 L89.296954,29.051206 L89.4627402,28.9865853 L89.9797685,29.2225912 L90.3366303,29.2872119 L91.1093627,29.0146813 L91.6067214,29.1579706 L92.0310217,29.3405942 L92.2586265,29.3518326 L93.3910307,29.8013677 L93.6692143,29.85475 L94.2312015,29.9109419 L95.0657525,29.9334186 L95.568731,29.6412208 L95.9115432,29.3602614 L96.1784871,29.3658806 L96.445431,29.4333108 L96.6758458,29.5541234 L96.886591,29.764843 L97.0074182,30.0682792 L97.0860964,31.03197 L97.1984939,31.2876431 L97.36709,31.4702668 L97.5581657,31.5039819 L97.7604811,31.2932623 L98.1201529,30.9898261 L98.5669327,30.6554844 L98.8928852,30.3520482 L99.0867708,30.2368548 L99.4155333,30.2537124 L99.7414859,30.3070947 L99.9353715,30.4531936 L99.9325615,30.3632866 L99.8426436,29.9755625 L99.8426436,29.9755625 Z M1.01157694,11.4125724 L0.342812184,11.6457687 L0,12.0222544 L0.373721479,12.2104972 L1.53703496,12.0166352 L1.55670451,11.7609621 L1.23356187,11.3872861 L1.01157694,11.4125724 L1.01157694,11.4125724 Z" id="Stroke-20-Copy-2" stroke="#FF6A00" stroke-linecap="round" stroke-linejoin="round" fill="#FFFFFF" sketch:type="MSShapeGroup"></path>
            <text id="Syria-Copy" sketch:type="MSTextLayer" font-family="Fira Sans" font-size="10" font-weight="normal" fill="#222222">
                <tspan x="39" y="22">Syria</tspan>
            </text>
        </g>
    </g>
</svg>