<?xml version="1.0" encoding="UTF-8" standalone="no"?>
<svg width="118px" height="113px" viewBox="0 0 118 113" version="1.1" xmlns="http://www.w3.org/2000/svg" xmlns:xlink="http://www.w3.org/1999/xlink" xmlns:sketch="http://www.bohemiancoding.com/sketch/ns">
    <!-- Generator: Sketch 3.4.4 (17249) - http://www.bohemiancoding.com/sketch -->
    <title>syria</title>
    <desc>Created with Sketch.</desc>
    <defs></defs>
    <g id="Assets" stroke="none" stroke-width="1" fill="none" fill-rule="evenodd" sketch:type="MSPage">
        <g id="syria" sketch:type="MSArtboardGroup" stroke="#FF6A00" fill="#FFFFFF" stroke-linecap="round" stroke-linejoin="round">
            <path d="M116.68052,5.17817116 L115.550494,2.49985631 L114.634784,1.45774836 L114.24512,1.33113711 L113.407342,1 L112.803363,1.19478653 L111.069358,3.01604063 L108.088428,4.11658455 L105.594579,4.78859809 L101.590781,5.60670154 L98.4734686,6.01575326 L97.1291277,6.04497124 L94.1774227,5.68461615 L91.5471906,5.16843184 L88.975408,5.18791049 L87.0270879,5.42165433 L82.6531093,7.38899833 L75.2787177,11.4405582 L69.5409149,13.3786843 L66.296962,14.1773091 L63.7446626,14.6350574 L59.2830096,14.6642754 L55.6201678,14.3526169 L53.1068348,14.3818349 L51.6553363,13.8948686 L49.5024426,12.2586617 L46.9306601,10.6321941 L45.8201176,10.2620997 L44.3881023,9.95044126 L42.322883,9.76539405 L37.4228579,12.1320504 L35.8934267,12.774846 L34.178905,13.2618123 L30.7790864,14.712972 L29.2886215,15.4921182 L27.3110766,15.4142035 L24.7782604,15.2096777 L22.6058835,15.277853 L21.056969,14.1773091 L20.1510002,12.9404146 L17.1116208,12.1807471 L14.9782103,11.9567426 L14.4813887,12.5118842 L14.0722414,14.1967877 L13.5559366,18.5210488 L13.4877454,19.602114 L15.7380551,23.8971571 L15.7185719,24.5594313 L14.3937142,24.7736965 L12.864283,24.8516111 L11.8998645,25.2314449 L11.1302781,25.9424157 L10.9549293,29.6628385 L9.23066596,30.3445914 L8.45133792,31.1139982 L7.77916748,33.4124793 L7.31157065,33.461176 L4.27219128,31.7275758 L2.90836721,31.5814859 L2.08033116,33.0716029 L1.24255351,39.2073787 L4.01890967,42.5382285 L4.38909049,44.0867814 L4.5254729,45.2165433 L5.11971053,46.8819682 L4.45728169,50.4855191 L4.6228889,52.9398294 L5.00281132,55.0630026 L6.80500742,59.961884 L9.9807692,59.9716233 L12.0070221,59.87423 L12.5233269,58.8710794 L14.1501742,59.3288277 L15.1243343,60.3027604 L14.4034558,61.3253897 L13.3708462,62.4941089 L13.4585206,62.796028 L14.3157814,62.8934213 L15.8062463,63.5362169 L16.7511816,64.2764057 L18.6020857,68.8928466 L17.8519824,70.7920153 L16.5855744,72.4866581 L15.9621119,72.6424874 L14.8028615,73.4800694 L13.8579262,74.6390493 L13.5559366,75.3597595 L13.692319,76.0415124 L15.2217503,76.8985731 L15.2899415,77.2394496 L15.0171767,77.5024114 L13.8189598,77.3173642 L12.2797869,77.2297102 L11.3738181,77.2297102 L10.3412084,77.4050181 L9.09428355,78.4471261 L8.54875392,79.1288789 L8.26624751,79.5671486 L7.90580829,80.979351 L8.51952912,81.9532837 L9.56188038,82.498686 L9.72748759,82.7811265 L9.54239718,83.2778321 L8.59746192,83.8816704 L7.90580829,84.6315985 L7.74994268,85.391266 L6.98035623,86.1217155 L6.76604102,87.4560033 L6.57120901,88.3228034 L6.65888342,89.4623046 L7.10699704,90.0856215 L7.74020108,91.3322553 L8.1688315,92.5691498 L7.54536907,93.5917791 L7.70123467,94.6631051 L7.95451629,95.5591231 L8.60720353,96.6109704 L7.72071788,98.5003998 L6.84397383,100.243739 L6.66862502,101.266369 L8.66565313,101.733856 L9.8736116,102.746746 L11.9777973,105.639326 L14.9782103,106.476908 L16.2153936,107.295012 L17.9396568,108.824086 L19.9464266,109.379228 L26.2297589,110.333682 L30.9252104,107.119704 L34.8803002,104.402432 L39.3809196,101.315065 L42.4300406,99.2113706 L47.6417969,95.6272984 L51.0708403,93.3580353 L55.5812014,90.368062 L60.0233712,87.417046 L64.9136547,84.3296794 L68.5570133,82.021459 L73.6518704,78.7880025 L78.561637,75.6616786 L83.2181221,72.691184 L88.3519456,69.4090309 L92.9402395,66.4677542 L97.2849933,65.2795564 L98.1325125,64.344581 L99.7691014,60.3319784 L101.152409,56.893996 L101.16215,56.0953713 L100.67507,51.2062292 L100.392564,45.4697658 L100.655587,42.3921386 L101.376466,39.6748664 L102.087602,37.6880438 L101.990186,35.8278324 L101.668714,33.938403 L100.43153,31.0847802 L99.1358974,28.1142856 L98.9410654,25.2411842 L98.9702902,23.7023706 L99.3209878,21.2480603 L100.178249,19.4560241 L101.191375,18.3360016 L105.263364,17.1965003 L107.679281,16.5050081 L110.669952,13.3299876 L112.442924,11.4405582 L114.858841,8.44084561 L116.641554,6.23975778 L116.719486,5.48009029 L116.68052,5.17817116 L116.68052,5.17817116 Z" id="Stroke-29" sketch:type="MSShapeGroup"></path>
        </g>
    </g>
</svg>