<?xml version="1.0" encoding="UTF-8" standalone="no"?>
<svg width="103px" height="43px" viewBox="0 0 103 43" version="1.1" xmlns="http://www.w3.org/2000/svg" xmlns:xlink="http://www.w3.org/1999/xlink" xmlns:sketch="http://www.bohemiancoding.com/sketch/ns">
    <!-- Generator: Sketch 3.4.4 (17249) - http://www.bohemiancoding.com/sketch -->
    <title>turkey</title>
    <desc>Created with Sketch.</desc>
    <defs></defs>
    <g id="Assets" stroke="none" stroke-width="1" fill="none" fill-rule="evenodd" sketch:type="MSPage">
        <g id="turkey" sketch:type="MSArtboardGroup" stroke="#FF6A00" fill="#FFFFFF" stroke-linecap="round" stroke-linejoin="round">
            <path d="M5.34101382,11.1058954 L6.43969877,10.9935116 L7.52714398,10.9822733 L7.19557154,11.4908098 L5.84680229,12.1033014 L5.40002248,12.4432623 L4.91390356,12.909655 L4.93357311,13.3226654 L4.98977183,13.6064344 L4.84084523,13.9857297 L4.74811734,14.3959304 L5.09092953,14.2666891 L5.37754299,14.0981134 L6.02663819,13.2411872 L7.47937507,11.7745789 L8.4825222,11.3671877 L9.87344049,10.6057876 L10.682702,9.6645735 L10.9749354,8.84698153 L12.2169271,8.59973722 L13.1301562,8.74021694 L13.9141284,8.30472981 L14.3440486,8.18391725 L14.9706643,8.24291873 L17.4855569,8.83855274 L18.3622569,8.63064276 L18.5392829,8.30472981 L18.6825896,7.81866998 L18.7668877,7.27079908 L18.1964707,7.15560571 L15.0465325,5.82104837 L14.2513207,5.28441584 L13.4223896,4.21676997 L13.0430482,3.44975071 L13.1273463,2.75578089 L12.4361021,2.6490163 L12.2000674,2.67992184 L12.0595706,2.83163994 L11.7392379,2.8007344 L11.3458469,2.8007344 L10.946836,2.97492925 L10.7248511,3.04797871 L10.4101382,2.89064142 L9.80881196,2.41301038 L9.44071035,2.08147824 L9.17938631,2 L8.92930201,2.0983358 L8.01888277,2.20790998 L7.81656738,2.401772 L7.40912667,2.61530117 L6.98763628,2.71644657 L6.38069012,2.78949602 L6.05754749,2.78106724 L5.8861414,2.88221264 L5.75688434,3.19407762 L5.6753962,3.5003234 L5.59390806,3.62394556 L4.83803529,3.77566365 L4.68348882,3.94985851 L4.64976959,4.12124376 L4.67505901,4.29543862 L5.13869844,4.41625118 L5.41407216,4.61854197 L5.59390806,4.80116561 L5.8552321,4.96131249 L6.04349781,4.99783721 L6.22614364,5.54289853 L6.34978082,6.21720118 L6.254243,6.509399 L5.9254805,6.57682926 L4.92514331,7.21460719 L4.93919299,7.80181241 L4.97291222,8.08558145 L5.00944138,8.28506265 L5.13026863,8.45644791 L5.14712825,8.69807303 L5.04597055,8.9621749 L4.61886029,9.40047162 L4.32381702,9.74886133 L4.00067438,10.2208732 L3.80397887,10.2798747 L3.65505226,10.3641625 L3.81802855,10.631074 L4.03720355,11.0749899 L4.64133978,11.032846 L5.34101382,11.1058954 L5.34101382,11.1058954 Z M101.842644,31.9755625 L102,31.6384112 L101.971901,31.5063603 L101.511071,31.0793019 L100.884455,30.6550532 L100.718669,30.5820037 L100.659661,30.1268494 L100.637181,29.7840789 L100.547263,29.4750235 L100.418006,29.2980191 L100.395527,29.160349 L100.586602,28.8260072 L100.409576,28.6068589 L99.499157,28.0674167 L99.147915,27.7976957 L98.5578285,27.7443134 L98.4763403,27.5644994 L98.5184894,27.1880137 L98.664606,26.7328594 L98.9259301,26.2833243 L98.9961785,26.0473184 L99.0692368,25.6455464 L99.0748567,25.3589678 L99.3783298,24.9600054 L99.36709,24.8532408 L99.2490727,24.7099515 L98.9568394,24.6284732 L98.6617961,24.5975677 L98.5437788,24.5245182 L98.4791503,24.3081795 L98.403282,23.4343956 L98.2459256,22.9090014 L98.0773294,22.5297062 L98.0408003,21.6727799 L97.8160054,21.5013947 L97.4422839,21.0518596 L97.2596381,20.6725643 L97.3130269,20.529275 L97.3467461,20.2820307 L97.349556,19.9533082 L97.3045971,19.7229214 L96.9870743,19.4981539 L96.73699,19.2593383 L96.6779813,18.9980461 L96.5515342,18.6777523 L96.3969877,18.4248888 L96.3211195,18.2591227 L96.4138474,18.1607869 L96.8128583,18.0821183 L97.4169945,18.1355006 L97.9031134,18.1411198 L98.1588176,17.9781633 L98.2908846,16.4441248 L98.5465887,16.0395432 L98.8753512,15.8063468 L99.6537035,16.3485985 L99.9740362,16.539651 L100.153872,16.5452702 L99.9515567,16.3289314 L99.8560189,16.213738 L99.6424638,15.944017 L98.6365067,15.0618043 L97.7204676,14.3875017 L97.1163313,14.6150788 L96.5543442,14.6431748 L95.6916938,14.7780353 L95.3601214,14.7218434 L94.5508598,14.4296456 L93.8624255,14.0812559 L93.929864,13.935157 L94.0506912,13.831202 L93.8287063,13.3788573 L93.3706867,12.6511723 L93.3791166,12.4235952 L93.2217601,12.1089206 L93.0644037,11.8729147 L93.4858941,11.3053766 L93.6516803,10.8502223 L93.6376307,10.4063064 L93.4409351,9.94834253 L92.9913454,9.11670259 L92.7553108,8.87507747 L92.3450601,8.65030992 L91.9769585,8.28225306 L91.8589412,8.02377037 L91.8533213,7.908577 L91.7858829,7.72595337 L91.6088569,7.59671202 L91.3784422,7.51242419 L90.9766213,7.54332973 L90.5916601,7.4590419 L90.290997,7.22865516 L90.2066989,7.0572699 L90.3387659,6.91398059 L90.2095088,6.79597762 L89.7037204,6.51782778 L88.84107,5.81823878 L88.3886703,5.66371108 L88.1526357,5.22822395 L87.9699899,5.13550734 L87.6018883,5.09336342 L87.2253569,5.13550734 L87.1466787,5.18327044 L87.0399011,5.2535103 L86.8179162,5.79857161 L86.6324604,5.98400484 L86.1041924,5.89690742 L85.6574126,5.77047567 L85.2977408,5.69742622 L84.6177363,5.65247271 L83.8450039,5.64404392 L83.3813645,6.02895835 L83.1509498,5.98119525 L82.7294594,5.79014283 L82.0747443,5.63280555 L81.7206924,5.50918339 L81.3132517,6.08234065 L79.7705968,7.07693706 L79.1805103,7.38037326 L78.489266,7.51242419 L77.8851298,8.02096078 L75.8563561,8.91722139 L75.1763516,9.03241476 L74.4963471,8.82169518 L74.0523772,8.88631585 L73.5156794,8.78798005 L71.4812858,8.02657997 L68.6320108,8.57164128 L67.1933236,9.07174908 L66.3081938,9.14479853 L63.8579296,8.66997708 L63.0683376,8.19515563 L61.343037,7.97881686 L59.4407104,7.54894892 L58.9995504,6.98983964 L57.8502866,6.45039751 L57.1955715,6.51782778 L56.911768,6.67797466 L56.563336,7.07131787 L56.0238283,6.99545883 L55.3382039,6.61897318 L54.7734068,6.06548308 L53.9500955,4.50053901 L53.5623244,4.36567848 L53.2616612,4.31229618 L51.4829718,4.79835601 L50.1032932,4.21957957 L49.6087445,3.81780757 L49.1029561,3.23060234 L49.018658,2.82883034 L49.1338653,2.62934914 L49.1788243,2.3989624 L48.403282,2.18262364 L47.1809599,2.82883034 L44.3597842,2.78668643 L40.2235585,2.46077348 L39.7430595,2.53944212 L38.1048668,3.22498315 L36.1098123,3.74475812 L34.9633584,4.21396038 L33.9321119,5.07088667 L30.9001911,6.71730898 L30.4253119,7.71190539 L29.9869619,8.02096078 L27.7390132,8.1586309 L25.3168484,7.47308987 L23.1812971,7.75404931 L20.112847,7.28203745 L19.2333371,7.32418137 L18.9804428,7.59390243 L18.8820951,8.0574855 L18.8146566,8.63345235 L19.0225919,8.90598301 L19.1968079,9.0633203 L19.98359,9.61961999 L20.5343374,9.85562591 L22.7766663,10.1562525 L23.0239407,10.1562525 L23.0127009,10.2939226 L21.3126897,10.4765463 L19.0338316,10.8417935 L18.5533326,10.9569869 L17.7328313,11.5526209 L18.0194448,11.7408637 L18.3004384,11.8729147 L18.710689,11.9656313 L19.1462291,12.2325428 L18.9186243,12.4460719 L17.5501855,12.4376432 L17.0022479,12.5275502 L15.2516579,12.3645937 L13.6022255,12.5696941 L13.4251995,12.5022638 L13.5825559,12.1623029 L13.7230527,11.9684409 L13.6865235,11.8279612 L13.0908171,11.6818623 L12.5541194,11.704339 L12.3770934,11.8785339 L13.0149489,12.493835 L12.7283354,12.6848875 L12.4248623,12.8225576 L11.1407216,12.8787495 L10.3876588,12.5303598 L10.2780713,12.2887347 L10.1094751,12.0386808 L9.280544,12.0583479 L8.74665618,12.403928 L7.34730808,12.3814513 L6.09126672,13.6401496 L5.33258402,14.710605 L4.67224907,14.4240264 L4.5570417,15.1545209 L4.6666292,16.5059358 L4.42778465,17.0566163 L4.41935484,17.3572429 L4.5261324,17.6943943 L5.73721479,17.5876297 L6.40597954,17.3572429 L8.14251995,17.0931411 L8.51905137,17.1774289 L8.5921097,17.3797197 L8.13128021,17.9978305 L7.63673148,18.4951287 L7.50747443,18.7929457 L7.71259975,18.9924269 L8.45723278,19.905545 L8.46004271,20.2792211 L8.26615713,20.5489422 L8.31954591,20.8832839 L8.59772957,21.1220994 L8.87310329,21.0518596 L9.13442734,21.1473858 L9.37046195,21.3524862 L8.87591323,22.0548848 L8.28020681,22.3049387 L8.15656963,22.4735143 L8.29706643,22.7853793 L8.35045521,22.9989085 L8.59491964,23.4372052 L8.97988086,23.9176458 L9.31988311,24.131175 L10.2134427,24.1058887 L9.99145779,24.3362754 L8.78880522,24.6088061 L8.31111611,24.5104703 L8.08070136,24.3194178 L7.92615488,24.4008961 L7.83904687,24.844812 L7.66202091,24.7380474 L7.39788693,24.3194178 L7.45127571,23.8839307 L7.30234911,23.4400148 L6.90052827,22.9792413 L6.52399685,22.9061919 L6.20366416,23.0129564 L6.19804428,23.4091093 L6.54085647,24.1789381 L6.49870743,24.6397116 L6.12217601,24.6256636 L5.8861414,25.2156784 L6.11374621,25.4376364 L6.6139148,25.6146408 L7.13375295,25.946173 L7.4344161,26.0304608 L7.62549174,25.856266 L7.93458469,25.7185958 L8.59772957,26.1007007 L8.99674047,26.631714 L9.33112285,26.5811413 L10.466337,27.0643916 L10.8512982,27.1149643 L11.0030347,27.7302654 L10.9074969,28.730481 L10.1628639,28.9692965 L10.1235248,29.160349 L10.5590649,29.5059291 L10.8906373,30.2223756 L11.0086546,30.8770111 L11.385186,31.1354938 L11.8375857,31.1860665 L11.9752726,31.4024053 L12.615938,31.7704622 L12.7255255,32.3155235 L11.8769248,32.5796253 L11.5256828,32.5515294 L11.2812184,32.8577752 L11.387996,33.5124107 L11.6352703,33.4786955 L11.8179162,33.2370704 L13.4757784,33.3157391 L15.8782736,33.1752593 L16.4402608,33.1780689 L16.3615826,33.3859789 L15.6590986,33.8720388 L15.290997,34.4367672 L14.9313252,34.5828661 L13.3661909,34.7261555 L12.9812296,34.9031599 L12.5316399,34.9846381 L12.4754412,35.2037865 L12.9334607,35.3807909 L13.5375969,35.442602 L14.28223,35.0464492 L15.729347,34.950923 L15.3977745,35.470698 L15.4399236,35.6982751 L15.9119928,35.6224161 L16.3334832,35.366743 L16.8448915,34.5660086 L17.7806002,34.6165813 L19.0366416,35.2740264 L19.5592896,35.4369828 L19.9695403,35.4482212 L20.3376419,35.1813097 L20.7001236,35.3217895 L20.8265708,35.6757984 L20.8855794,35.9820441 L21.1750028,36.4287697 L21.3660785,37.2154561 L21.8128583,37.6818488 L22.4872429,38.1004783 L24.2996516,38.7523042 L24.8166798,38.6792548 L26.3115657,38.1594798 L27.0590087,37.7914229 L27.3990109,37.9150451 L27.8935596,38.1988141 L28.1886029,38.0302385 L28.3656289,37.7717558 L28.4218276,36.8726856 L28.6606721,36.3922449 L28.6634821,34.6587252 L28.9557154,34.2204285 L30.5489491,34.3300026 L32.0663145,34.5013879 L32.656401,34.6334388 L34.9493088,35.8387548 L36.253119,36.3332434 L36.8572553,36.8839239 L37.7395751,38.0414768 L38.2678431,38.580919 L39.1192537,39.1091227 L40.507362,39.5249427 L41.1789367,39.1428378 L42.0584467,39.0950747 L43.8146566,38.7775906 L44.238957,38.8337825 L45.115657,38.5921573 L46.4110374,37.867282 L46.7426099,37.5778938 L48.0408003,35.8921371 L49.5103968,34.7402034 L50.0218051,34.535103 L50.5894122,34.6446772 L51.3143756,35.1166891 L52.5732269,35.6982751 L53.7309205,36.0775704 L54.4671237,35.9399002 L54.894234,35.5830817 L55.0375407,35.1251179 L55.3972125,34.8722544 L55.7372148,34.7823473 L56.2317635,34.3356218 L56.9454872,33.9338498 L57.4259863,34.3103355 L57.6845004,34.5941045 L57.7603687,35.0043053 L57.8109475,35.5437474 L57.0747443,36.4147217 L56.3666404,37.1564546 L56.0463077,37.7745654 L56.5239969,38.7382562 L56.9763965,39.7665678 L56.6869731,40.2863427 L57.0803642,40.3284867 L57.9542542,40.8285945 L58.0891312,40.8145465 L58.2858267,40.1514822 L58.5106216,39.9267147 L59.0051703,39.7300431 L59.0557491,38.6595876 L59.2777341,38.4544872 L59.5587277,38.344913 L59.9998876,38.3224363 L60.379229,38.2578156 L60.3876588,38.0695728 L59.7357536,36.8305417 L59.7582331,36.5186767 L59.9043498,35.2712168 L60.025177,34.7823473 L60.1656738,34.6250101 L60.7838597,34.6868211 L61.6605597,34.9059695 L61.9190738,35.2655976 L62.3686636,35.5830817 L62.9952793,35.5634146 L63.7258627,35.6224161 L64.2934697,35.6420832 L64.7261998,35.4201253 L65.7068675,35.0014957 L66.2014162,34.861016 L66.6425761,34.6755828 L68.053164,33.9928513 L68.6516803,34.043424 L69.0647409,34.1361406 L69.3850736,34.2429052 L70.1268967,34.7092979 L70.7478925,35.1841193 L71.1637631,35.3245991 L71.8887265,35.3133607 L72.9452624,35.4032677 L74.2322131,35.3976485 L74.9712263,35.2655976 L75.9069349,35.0324012 L77.5619872,34.473292 L79.6891087,33.3045007 L80.9507699,32.7369626 L81.5127571,32.672342 L82.2545802,32.6639132 L83.010453,32.8128217 L83.8646735,32.9195863 L84.2496347,32.9111575 L85.1488142,32.7931545 L86.3036979,32.5571486 L87.0258514,32.3632866 L87.8856918,32.0458024 L88.3858604,31.5175987 L88.5600764,31.4642164 L88.8017309,31.5597426 L88.9141284,31.5962673 L89.1782623,31.8968939 L89.5042149,32.6695324 L89.9903338,32.540291 L90.8333146,31.7704622 L91.296954,31.051206 L91.4627402,30.9865853 L91.9797685,31.2225912 L92.3366303,31.2872119 L93.1093627,31.0146813 L93.6067214,31.1579706 L94.0310217,31.3405942 L94.2586265,31.3518326 L95.3910307,31.8013677 L95.6692143,31.85475 L96.2312015,31.9109419 L97.0657525,31.9334186 L97.568731,31.6412208 L97.9115432,31.3602614 L98.1784871,31.3658806 L98.445431,31.4333108 L98.6758458,31.5541234 L98.886591,31.764843 L99.0074182,32.0682792 L99.0860964,33.03197 L99.1984939,33.2876431 L99.36709,33.4702668 L99.5581657,33.5039819 L99.7604811,33.2932623 L100.120153,32.9898261 L100.566933,32.6554844 L100.892885,32.3520482 L101.086771,32.2368548 L101.415533,32.2537124 L101.741486,32.3070947 L101.935371,32.4531936 L101.932562,32.3632866 L101.842644,31.9755625 L101.842644,31.9755625 Z M3.01157694,13.4125724 L2.34281218,13.6457687 L2,14.0222544 L2.37372148,14.2104972 L3.53703496,14.0166352 L3.55670451,13.7609621 L3.23356187,13.3872861 L3.01157694,13.4125724 L3.01157694,13.4125724 Z" id="Stroke-20-Copy-2" sketch:type="MSShapeGroup"></path>
        </g>
    </g>
</svg>